<?xml version="1.0" encoding="utf-8"?>
<!-- Generator: Adobe Illustrator 24.1.3, SVG Export Plug-In . SVG Version: 6.00 Build 0)  -->
<svg version="1.1" id="Layer_1" xmlns="http://www.w3.org/2000/svg" xmlns:xlink="http://www.w3.org/1999/xlink" x="0px" y="0px"
	 viewBox="0 0 2811.7 88.2" style="enable-background:new 0 0 2811.7 88.2;" xml:space="preserve">
<style type="text/css">
	.st0{fill:#FFFFFF;}
</style>
<g>
	<path class="st0" d="M2799.4,87.7c-6.4,0-11.6-5.2-11.6-11.6c0-6.29,5.16-11.4,11.5-11.4c6.67,0,11.9,5.05,11.9,11.5
		C2811.2,82.54,2805.91,87.7,2799.4,87.7z M2551.4,87.7c-18.17,0-28.6-11.77-28.6-32.3c0-25.92,14.37-54.9,33.6-54.9
		s33.6,28.98,33.6,54.9c0,20.53-10.42,32.3-28.6,32.3H2551.4z M2556.4,17.7c-6.53,0-16.4,14.16-16.4,35.5
		c0,10.71,5.21,15.7,16.4,15.7c11.19,0,16.4-4.99,16.4-15.7C2572.8,31.86,2562.93,17.7,2556.4,17.7z M2459.1,87.7
		c-14.02,0-29.1-7.51-29.1-24c0-8.74,5.23-14,6.6-14c0.78,0,0.97,0.91,1.4,2.9c1.21,5.65,3.72,17.4,20.1,17.4
		c6.82,0,13.7-2.78,13.7-9c0-7.14-9.4-10.05-14.45-11.62c-21.72-6.74-24.65-16.77-24.65-25.68c0-8.02,5.54-23.2,26.5-23.2
		c14.62,0,25.3,7.79,25.3,11.1c0,2.82-5.27,12.4-8.5,12.4c-1.03,0-2.05-1.02-3.46-2.43c-2.62-2.62-6.57-6.57-13.34-6.57
		c-4.38,0-10.9,2.08-10.9,7.8c0,6.33,8.33,9.15,13.84,11.01l1.23,0.42c22.98,7.66,25.64,19.12,25.64,27.07
		C2489,74.02,2479.64,87.7,2459.1,87.7z M2262.3,87.7c-18.17,0-28.6-11.77-28.6-32.3c0-25.92,14.37-54.9,33.6-54.9
		s33.6,28.98,33.6,54.9c0,20.53-10.42,32.3-28.6,32.3H2262.3z M2267.3,17.7c-6.53,0-16.4,14.16-16.4,35.5
		c0,10.71,5.21,15.7,16.4,15.7c11.19,0,16.4-4.99,16.4-15.7C2283.7,31.86,2273.83,17.7,2267.3,17.7z M2118.9,87.7
		c-22.04,0-35.2-14.5-35.2-38.8c0-23.46,13.14-48.4,37.5-48.4c9.08,0,22.6,3.99,22.6,15c0,5.92-4.14,9.6-10.8,9.6
		c-1.9,0-2.2-1.64-2.49-3.22c-0.5-2.75-1.13-6.18-8.81-6.18c-16.42,0-20.8,19.67-20.8,31.3c0,14.53,5.28,21.9,15.7,21.9
		c5.99,0,12.4-2.39,12.4-9.1c0-4.9-3.08-6.96-5.33-8.47c-1.44-0.96-2.57-1.72-2.57-2.93c0-0.45,0-1.21,9.07-4.7
		c3.59-1.38,9-3.3,9.83-3.3c2.93,0,4.8,27.62,4.8,27.9C2144.8,81.7,2131.79,87.7,2118.9,87.7z M1366.6,87.7
		c-19.86,0-30.8-15.95-30.8-44.9c0-29.93,3.35-40.8,5.6-40.8h13.9c0.94,0,2.7,0,2.7,1.8c0,0.62-0.28,1.62-0.75,3.29
		c-1.38,4.94-4.25,15.21-4.25,32.61c0,23.05,8.55,29.2,13.6,29.2c3.78,0,15.3,0,15.3-28.2c0-20.51-3.03-30.38-4.33-34.59
		c-0.37-1.2-0.57-1.86-0.57-2.31c0-1.21,1.08-1.82,3.22-1.82c0.26,0,0.5,0.01,0.71,0.01c0.14,0,0.27,0.01,0.37,0.01h9.8
		c3.17,0,6.4,4.53,6.4,38.1C1397.5,71.68,1387.1,87.7,1366.6,87.7z M1223.2,87.7c-6.4,0-11.6-5.2-11.6-11.6
		c0-6.29,5.16-11.4,11.5-11.4c6.67,0,11.9,5.05,11.9,11.5C1235,82.54,1229.71,87.7,1223.2,87.7z M1049.4,87.7
		c-14.02,0-29.1-7.51-29.1-24c0-8.74,5.23-14,6.6-14c0.78,0,0.97,0.91,1.4,2.9c1.21,5.65,3.72,17.4,20.1,17.4
		c6.82,0,13.7-2.78,13.7-9c0-7.14-9.4-10.05-14.45-11.62C1025.93,42.63,1023,32.61,1023,23.7c0-8.02,5.54-23.2,26.5-23.2
		c14.62,0,25.3,7.79,25.3,11.1c0,2.82-5.27,12.4-8.5,12.4c-1.03,0-2.05-1.02-3.46-2.43c-2.62-2.62-6.57-6.57-13.34-6.57
		c-4.38,0-10.9,2.08-10.9,7.8c0,6.33,8.33,9.15,13.84,11.01l1.23,0.42c22.98,7.66,25.64,19.12,25.64,27.07
		C1079.3,74.02,1069.94,87.7,1049.4,87.7z M976.9,87.7c-18.18,0-28.6-11.77-28.6-32.3c0-25.92,14.37-54.9,33.6-54.9
		s33.6,28.98,33.6,54.9c0,20.53-10.42,32.3-28.6,32.3H976.9z M981.9,17.7c-6.53,0-16.4,14.16-16.4,35.5c0,10.71,5.21,15.7,16.4,15.7
		c11.19,0,16.4-4.99,16.4-15.7C998.3,31.86,988.43,17.7,981.9,17.7z M862.5,87.7c-23.22,0-33.8-21.41-33.8-41.3
		c0-22.81,12.71-45.9,37-45.9c9.08,0,22.6,3.99,22.6,15c0,5.92-4.14,9.6-10.8,9.6c-1.9,0-2.2-1.64-2.49-3.22
		c-0.5-2.75-1.13-6.18-8.81-6.18c-13.95,0-20.3,13.94-20.3,26.9c0,19.16,13,26.3,21.2,26.3c12.85,0,16.2-9.36,17.46-12.88
		c0.43-1.21,0.61-1.72,1.14-1.72c2.16,0,2.7,9.41,2.7,9.5C888.4,77.87,877.75,87.7,862.5,87.7z M540.1,87.7
		c-14.02,0-29.1-7.51-29.1-24c0-8.74,5.23-14,6.6-14c0.78,0,0.97,0.91,1.4,2.9c1.21,5.65,3.73,17.4,20.1,17.4
		c6.82,0,13.7-2.78,13.7-9c0-7.14-9.4-10.05-14.45-11.62c-21.72-6.75-24.65-16.77-24.65-25.68c0-8.02,5.54-23.2,26.5-23.2
		c14.62,0,25.3,7.79,25.3,11.1c0,2.82-5.27,12.4-8.5,12.4c-1.03,0-2.05-1.02-3.46-2.43c-2.62-2.62-6.57-6.57-13.34-6.57
		c-4.38,0-10.9,2.08-10.9,7.8c0,6.33,8.33,9.15,13.84,11.01l1.23,0.42C567.34,41.89,570,53.35,570,61.3
		C570,74.02,560.64,87.7,540.1,87.7z M401.2,87.7c-18.18,0-28.6-11.77-28.6-32.3c0-25.92,14.37-54.9,33.6-54.9
		c19.23,0,33.6,28.98,33.6,54.9c0,20.53-10.42,32.3-28.6,32.3H401.2z M406.2,17.7c-6.53,0-16.4,14.16-16.4,35.5
		c0,10.71,5.21,15.7,16.4,15.7s16.4-4.99,16.4-15.7C422.6,31.86,412.73,17.7,406.2,17.7z M330,87.7c-18.18,0-28.6-11.77-28.6-32.3
		c0-25.92,14.37-54.9,33.6-54.9c19.23,0,33.6,28.98,33.6,54.9c0,20.53-10.42,32.3-28.6,32.3H330z M335,17.7
		c-6.53,0-16.4,14.16-16.4,35.5c0,10.71,5.21,15.7,16.4,15.7c11.19,0,16.4-4.99,16.4-15.7C351.4,31.86,341.53,17.7,335,17.7z
		 M103.3,87.7c-19.86,0-30.8-15.95-30.8-44.9C72.5,12.87,75.85,2,78.1,2H92c0.94,0,2.7,0,2.7,1.8c0,0.62-0.28,1.62-0.75,3.29
		c-1.38,4.94-4.25,15.21-4.25,32.61c0,23.05,8.55,29.2,13.6,29.2c3.78,0,15.3,0,15.3-28.2c0-20.51-3.03-30.38-4.33-34.59
		c-0.37-1.2-0.57-1.86-0.57-2.31c0-1.21,1.08-1.82,3.22-1.82c0.26,0,0.5,0.01,0.71,0.01C117.77,2,117.9,2,118,2h9.8
		c3.16,0,6.4,4.53,6.4,38.1C134.2,71.68,123.8,87.7,103.3,87.7z M29.1,87.7c-18.18,0-28.6-11.77-28.6-32.3
		c0-25.92,14.37-54.9,33.6-54.9s33.6,28.98,33.6,54.9c0,20.53-10.42,32.3-28.6,32.3H29.1z M34.1,17.7c-6.53,0-16.4,14.16-16.4,35.5
		c0,10.71,5.21,15.7,16.4,15.7c11.19,0,16.4-4.99,16.4-15.7C50.5,31.86,40.63,17.7,34.1,17.7z M2327.99,86.39
		c-2.61,0-5.29-3.05-5.29-25.69c0-15.89,2.2-27.54,3.52-34.5c0.51-2.71,0.88-4.68,0.88-5.7c0-0.46,0.01-0.9,0.02-1.3
		c0.03-1.26,0.06-2.26-0.34-2.67c-0.21-0.22-0.6-0.33-1.18-0.33c-4.61,0-11.71,5.11-16.41,8.5c-2.89,2.08-4.2,3-4.89,3
		c-0.1,0-0.19,0.01-0.27,0.01c-0.09,0-0.18,0.01-0.27,0.01c-1.26,0-1.36-1.27-1.36-2.92c0-3.28,2.72-15.66,4.26-18.54
		c1.14-2.17,14.91-5.76,28.44-5.76c16.46,0,30.9,4.44,30.9,9.5c0,4.04-4.68,14.4-6.5,14.4c-0.78,0-1.59-0.89-2.83-2.24
		c-2.21-2.41-5.54-6.06-10.17-6.06c-4.87,0-6.6,14.98-6.6,27.8c0,20.25,3.41,32.26,4.86,37.39c0.41,1.46,0.64,2.26,0.64,2.71
		c0,1.49-1.24,2.25-3.69,2.25c-0.39,0-0.76-0.02-1.09-0.03c-0.24-0.01-0.45-0.02-0.62-0.02h-10.5c-0.16,0-0.34,0.04-0.54,0.07
		C2328.67,86.33,2328.34,86.39,2327.99,86.39z M1516.99,86.39c-2.61,0-5.29-3.05-5.29-25.69c0-15.89,2.2-27.54,3.52-34.5
		c0.51-2.71,0.88-4.68,0.88-5.7c0-0.46,0.01-0.9,0.02-1.3c0.03-1.26,0.06-2.26-0.34-2.67c-0.21-0.22-0.6-0.33-1.18-0.33
		c-4.61,0-11.71,5.11-16.41,8.5c-2.89,2.08-4.2,3-4.89,3c-0.1,0-0.19,0.01-0.27,0.01c-0.09,0-0.18,0.01-0.27,0.01
		c-1.26,0-1.36-1.27-1.36-2.92c0-3.28,2.72-15.66,4.26-18.54c1.14-2.17,14.91-5.76,28.44-5.76c16.46,0,30.9,4.44,30.9,9.5
		c0,4.04-4.68,14.4-6.5,14.4c-0.78,0-1.59-0.89-2.83-2.24c-2.21-2.41-5.54-6.06-10.17-6.06c-4.87,0-6.6,14.98-6.6,27.8
		c0,20.25,3.41,32.26,4.86,37.39c0.41,1.46,0.64,2.26,0.64,2.71c0,1.49-1.24,2.25-3.69,2.25c-0.39,0-0.76-0.02-1.09-0.03
		c-0.24-0.01-0.45-0.02-0.62-0.02h-10.5c-0.16,0-0.34,0.04-0.54,0.07C1517.67,86.33,1517.34,86.39,1516.99,86.39z M1425.39,86.39
		c-2.61,0-5.29-3.05-5.29-25.69c0-15.89,2.2-27.54,3.52-34.5c0.51-2.71,0.88-4.68,0.88-5.7c0-0.46,0.01-0.9,0.02-1.3
		c0.03-1.26,0.06-2.26-0.34-2.67c-0.21-0.22-0.6-0.33-1.18-0.33c-4.61,0-11.71,5.11-16.41,8.5c-2.89,2.08-4.2,3-4.89,3
		c-0.1,0-0.19,0.01-0.27,0.01c-0.09,0-0.18,0.01-0.27,0.01c-1.26,0-1.36-1.27-1.36-2.92c0-3.28,2.72-15.66,4.26-18.54
		c1.14-2.17,14.91-5.76,28.44-5.76c16.46,0,30.9,4.44,30.9,9.5c0,4.04-4.68,14.4-6.5,14.4c-0.78,0-1.59-0.89-2.83-2.24
		c-2.21-2.41-5.54-6.06-10.17-6.06c-4.87,0-6.6,14.98-6.6,27.8c0,20.25,3.41,32.26,4.86,37.39c0.41,1.46,0.64,2.26,0.64,2.71
		c0,1.49-1.24,2.25-3.69,2.25c-0.39,0-0.76-0.02-1.09-0.03c-0.24-0.01-0.45-0.02-0.62-0.02h-10.5c-0.16,0-0.34,0.04-0.54,0.07
		C1426.07,86.33,1425.74,86.39,1425.39,86.39z M1837.5,86.28c-0.29,0-0.58-0.02-0.87-0.04c-0.25-0.02-0.49-0.04-0.73-0.04h-11.29
		l-0.3,0.01c-0.22,0.01-0.48,0.01-0.75,0.01c-0.78,0-3.15,0-3.15-1.72c0-1.04,0.85-2.77,2.03-5.16c2.26-4.59,5.67-11.53,5.67-19.04
		c0-5.29-6.35-5.7-8.3-5.7c-10.54,0-23.1,2.17-23.1,12.5c0,5.38,3.13,11.13,5.01,14.57c1.01,1.85,1.49,2.77,1.49,3.33
		c0,1.2-1.39,1.2-2.4,1.2h-14.3c-6.2,0-7-12.02-7-22.5c0-43.78,30.42-63.2,34.6-63.2c1.93,0,9.33,3.79,16.19,13.15
		c6.12,8.36,13.41,23.48,13.41,48.05c0,10.08-0.61,16.79-1.85,20.53C1840.65,85.8,1838.98,86.28,1837.5,86.28z M1814.5,18.6
		c-4.96,0-15.6,15.49-15.6,22.7c0,0.93,0.47,1.4,1.4,1.4c0.51,0,1.88-0.26,3.62-0.59c3.95-0.75,10.57-2.01,16.68-2.01
		c3.65,0,4.6-0.58,4.6-2.8C1825.2,31.36,1817.9,18.6,1814.5,18.6z M662.6,86.28c-0.29,0-0.58-0.02-0.87-0.04
		c-0.25-0.02-0.49-0.04-0.73-0.04h-11.29l-0.3,0.01c-0.22,0.01-0.48,0.01-0.75,0.01c-0.78,0-3.15,0-3.15-1.72
		c0-1.04,0.85-2.77,2.03-5.16c2.26-4.59,5.67-11.53,5.67-19.04c0-5.29-6.35-5.7-8.3-5.7c-10.54,0-23.1,2.17-23.1,12.5
		c0,5.38,3.13,11.13,5.01,14.57c1.01,1.85,1.49,2.77,1.49,3.33c0,1.2-1.39,1.2-2.4,1.2h-14.3c-6.2,0-7-12.02-7-22.5
		c0-43.78,30.42-63.2,34.6-63.2c1.93,0,9.33,3.79,16.19,13.15c6.12,8.36,13.41,23.48,13.41,48.05c0,10.08-0.61,16.79-1.85,20.53
		C665.75,85.8,664.08,86.28,662.6,86.28z M639.6,18.6c-4.96,0-15.6,15.49-15.6,22.7c0,0.93,0.47,1.4,1.4,1.4
		c0.51,0,1.88-0.26,3.62-0.59c3.95-0.75,10.57-2.01,16.68-2.01c3.65,0,4.6-0.58,4.6-2.8C650.3,31.36,643,18.6,639.6,18.6z
		 M1870.12,86.27c-0.33,0-0.67-0.02-0.96-0.04c-0.21-0.01-0.41-0.03-0.56-0.03h-11.67c0,0-0.5,0.02-0.62,0.02
		c-3,0-5.3-2.66-5.3-36.12c0-48.11,4.91-48.11,7.01-48.11L1858.4,2h26.5c21.48,0,23.8,13.43,23.8,19.2
		c0,11.53-7.54,17.36-12.05,20.84c-1.52,1.17-2.95,2.28-2.95,2.86c0,0.53,1.37,2.15,2.82,3.86c5.31,6.26,15.18,17.9,15.18,35.64
		c0,1.71-1.14,1.8-3,1.8h-11.46l-0.58,0.01c-0.3,0.01-0.61,0.01-0.93,0.01c-1.11,0-3.72,0-3.72-1.82c0-11.92-8.2-31.1-13.3-31.1
		c-2.84,0-9.8,3.98-9.8,9.2c0,5.77,2.15,15.06,3.18,19.53c0.4,1.71,0.52,2.26,0.52,2.47c0,0.68-0.31,1.19-0.9,1.48
		C1871.31,86.18,1870.81,86.27,1870.12,86.27z M1880.7,14.8c-4.29,0-6.89,0.78-8.7,2.6c-2.68,2.7-3.85,8.1-3.8,17.5
		c0,2.61,0.29,5.6,2.6,5.6c3.5,0,20.7-9.02,20.7-17.6C1891.5,16.93,1885.92,14.8,1880.7,14.8z M695.23,86.27
		c-0.33,0-0.67-0.02-0.96-0.04c-0.22-0.01-0.41-0.03-0.56-0.03h-11.67c0,0-0.5,0.02-0.62,0.02c-3,0-5.3-2.66-5.3-36.12
		c0-48.11,4.91-48.11,7.01-48.11L683.5,2H710c21.48,0,23.8,13.43,23.8,19.2c0,11.53-7.54,17.36-12.05,20.84
		c-1.52,1.17-2.95,2.28-2.95,2.86c0,0.53,1.37,2.15,2.82,3.86c5.31,6.26,15.18,17.9,15.18,35.64c0,1.71-1.14,1.8-3,1.8h-11.46
		l-0.58,0.01c-0.3,0.01-0.61,0.01-0.93,0.01c-1.11,0-3.72,0-3.72-1.82c0-11.92-8.2-31.1-13.3-31.1c-2.84,0-9.8,3.98-9.8,9.2
		c0,5.77,2.15,15.06,3.18,19.53c0.4,1.71,0.52,2.26,0.52,2.47c0,0.68-0.31,1.19-0.9,1.48C696.41,86.18,695.91,86.27,695.23,86.27z
		 M705.8,14.8c-4.29,0-6.89,0.78-8.7,2.6c-2.68,2.7-3.85,8.1-3.8,17.5c0,2.61,0.3,5.6,2.6,5.6c3.5,0,20.7-9.02,20.7-17.6
		C716.6,16.93,711.02,14.8,705.8,14.8z M465.42,86.27c-0.33,0-0.67-0.02-0.96-0.04c-0.22-0.01-0.41-0.03-0.56-0.03h-11.68
		c0,0-0.5,0.02-0.62,0.02c-3,0-5.3-2.66-5.3-36.12c0-48.11,4.91-48.11,7.01-48.11L453.7,2h26.5C501.68,2,504,15.43,504,21.2
		c0,11.53-7.54,17.36-12.05,20.84c-1.52,1.17-2.95,2.28-2.95,2.86c0,0.53,1.37,2.15,2.82,3.86c5.3,6.26,15.18,17.9,15.18,35.64
		c0,1.71-1.14,1.8-3,1.8h-11.46l-0.58,0.01c-0.3,0.01-0.61,0.01-0.93,0.01c-1.11,0-3.72,0-3.72-1.82c0-11.92-8.2-31.1-13.3-31.1
		c-2.84,0-9.8,3.98-9.8,9.2c0,5.77,2.15,15.06,3.18,19.53c0.4,1.71,0.52,2.26,0.52,2.47c0,0.68-0.31,1.19-0.9,1.48
		C466.61,86.18,466.11,86.27,465.42,86.27z M476,14.8c-4.29,0-6.89,0.78-8.7,2.6c-2.68,2.7-3.85,8.1-3.8,17.5
		c0,2.61,0.3,5.6,2.6,5.6c3.5,0,20.7-9.02,20.7-17.6C486.8,16.93,481.22,14.8,476,14.8z M160.63,86.27c-0.33,0-0.66-0.02-0.96-0.04
		c-0.22-0.01-0.41-0.03-0.56-0.03h-11.68c0,0-0.5,0.02-0.62,0.02c-3,0-5.3-2.66-5.3-36.12c0-48.11,4.91-48.11,7.01-48.11L148.9,2
		h26.5c21.48,0,23.8,13.43,23.8,19.2c0,11.53-7.54,17.36-12.05,20.84c-1.52,1.17-2.95,2.28-2.95,2.86c0,0.53,1.37,2.15,2.82,3.86
		c5.31,6.26,15.18,17.9,15.18,35.64c0,1.71-1.14,1.8-3,1.8h-11.46l-0.58,0.01c-0.3,0.01-0.61,0.01-0.93,0.01
		c-1.11,0-3.72,0-3.72-1.82c0-11.92-8.2-31.1-13.3-31.1c-2.84,0-9.8,3.98-9.8,9.2c0,5.77,2.15,15.06,3.18,19.53
		c0.4,1.71,0.52,2.26,0.52,2.47c0,0.68-0.31,1.19-0.9,1.48C161.81,86.18,161.31,86.27,160.63,86.27z M171.2,14.8
		c-4.29,0-6.89,0.78-8.7,2.6c-2.68,2.7-3.86,8.1-3.8,17.5c0,2.61,0.3,5.6,2.6,5.6c3.5,0,20.7-9.02,20.7-17.6
		C182,16.93,176.42,14.8,171.2,14.8z M2735.2,86.26c-0.27,0-0.54-0.02-0.79-0.03c-0.19-0.01-0.37-0.02-0.52-0.02h-9.38
		c0,0-0.5,0.02-0.62,0.02c-3,0-5.3-2.66-5.3-36.12c0-48.11,4.91-48.11,7.01-48.11L2726,2h7.9c3.43,0,10.01,4.87,30.54,42.86
		c0.04,0.07,0.11,0.19,0.17,0.32c0.24,0.46,0.64,1.22,1.09,1.22c0.21-0.24,0.34-1.79,0.31-4.56L2766,41.2
		c0-13.79-2.76-26.3-4.24-33.02c-0.54-2.45-0.86-3.93-0.86-4.58c0-1.63,1.94-1.63,2.88-1.63c0.28,0,0.57,0.01,0.86,0.01
		c0.29,0.01,0.58,0.01,0.86,0.01l7.67,0l0.41-0.01c2.42,0,6.92,0,6.92,48.11c0,33.46-2.3,36.12-5.3,36.12
		c-0.12,0-0.59-0.02-0.7-0.02H2764c-3.68,0-4.09-1.81-5.2-6.66c-1.19-5.21-3.39-14.9-11.55-31.42c-2.55-5.3-10.37-19.22-12.85-19.22
		c-0.07,0-0.16,0.02-0.29,0.15c-1.32,1.36-1.11,8.38-1.04,11.02c0.02,0.54,0.03,0.96,0.03,1.23c0,19.74,2.01,30.63,3.21,37.14
		c0.51,2.78,0.89,4.79,0.89,6.36c0,0.55-0.26,0.99-0.74,1.23C2736.15,86.19,2735.75,86.26,2735.2,86.26z M2031.9,86.26
		c-0.27,0-0.54-0.02-0.79-0.03c-0.19-0.01-0.37-0.02-0.52-0.02h-9.38c0,0-0.5,0.02-0.62,0.02c-3,0-5.3-2.66-5.3-36.12
		c0-48.11,4.91-48.11,7.01-48.11L2022.7,2h7.9c3.43,0,10.01,4.87,30.54,42.86c0.04,0.07,0.1,0.19,0.17,0.32
		c0.24,0.46,0.64,1.22,1.09,1.22c0.21-0.24,0.35-1.79,0.31-4.56l-0.01-0.64c0-13.79-2.75-26.3-4.24-33.02
		c-0.54-2.45-0.87-3.93-0.87-4.58c0-1.63,1.94-1.63,2.88-1.63c0.28,0,0.57,0.01,0.86,0.01c0.29,0.01,0.58,0.01,0.86,0.01l7.67,0
		l0.41-0.01c2.42,0,6.92,0,6.92,48.11c0,33.46-2.3,36.12-5.3,36.12c-0.12,0-0.59-0.02-0.7-0.02h-10.5c-3.68,0-4.09-1.81-5.2-6.66
		c-1.19-5.21-3.4-14.9-11.55-31.42c-2.55-5.3-10.37-19.22-12.85-19.22c-0.07,0-0.17,0.02-0.29,0.15c-1.32,1.36-1.11,8.38-1.04,11.02
		c0.02,0.54,0.03,0.97,0.03,1.23c0,19.74,2.01,30.63,3.21,37.14c0.51,2.78,0.89,4.79,0.89,6.36c0,0.55-0.26,0.99-0.74,1.23
		C2032.85,86.19,2032.45,86.26,2031.9,86.26z M1972.44,86.26c-0.3,0-0.61-0.01-0.93-0.03c-0.33-0.01-0.67-0.03-1.01-0.03h-12.2
		c-0.77,0-1.38-0.24-1.84-0.7c-0.92-0.94-0.89-2.53-0.87-3.48l0-0.32c-0.49-22.33-9.16-32.77-10.5-32.9c-2.18,0-10.5,7.21-10.5,12.6
		c0,2.72,1.64,12.17,2.62,17.81c0.58,3.33,0.78,4.52,0.78,4.79c0,1.38-0.9,2.2-2.4,2.2h-12.27c0,0-0.5,0.02-0.62,0.02
		c-3,0-5.3-2.66-5.3-36.12c0-48.11,4.91-48.11,7.01-48.11L1924.8,2l10.22,0c0,0,0.72-0.02,0.91-0.02c0.78,0,2.87,0,2.87,2.12
		c0,0.08,0,0.08-0.11,0.42c-1.44,4.56-4.79,16.45-4.79,28.38l-0.01,0.41c-0.02,1.07-0.08,4.31,0.79,5.2
		c0.13,0.13,0.25,0.19,0.41,0.19c1.69-0.12,16.43-16.54,21.32-33.64l0.17-0.56c0.57-1.86,0.84-2.4,3.19-2.5h9.62
		c0.14,0,0.32-0.01,0.5-0.02c0.24-0.01,0.51-0.03,0.77-0.03c1.61,0,2.42,0.59,2.42,1.74c0,11.08-9.17,22.44-14.1,28.55
		c-1.4,1.73-2.85,3.53-2.9,3.96c0.04,0.34,1.08,1.63,2.17,3c5.09,6.35,17.03,21.22,17.03,44.39c0,1.04-0.29,1.75-0.88,2.18
		C1973.85,86.2,1973.1,86.26,1972.44,86.26z M2228.15,86.26c-0.36,0-0.72-0.02-1.04-0.03c-0.23-0.01-0.44-0.02-0.61-0.02h-40.7
		c-0.12,0-0.26,0.01-0.4,0.01c-4.17,0-4.17-2.65-4.18-12.53c0-3.06,0-6.87-0.12-11.57c0-6.48,1.31-21.16,3.12-34.9
		C2187.53,2,2189.32,2,2190,2h15.9c1.53,0,2.4,0.91,2.4,2.5c0,0.56-0.45,1.72-1.47,4.3c-3.03,7.65-10.12,25.57-10.12,47
		c0,10.86,3.8,16.6,11,16.6c5.87,0,10.34-3.66,13.3-6.08c1.72-1.41,2.96-2.42,4-2.42c2.55,0,6.3,20.1,6.3,20.3
		c0,0.8-0.4,1.4-1.15,1.74C2229.66,86.15,2229.02,86.26,2228.15,86.26z M942.75,86.26c-0.36,0-0.72-0.02-1.04-0.03
		c-0.23-0.01-0.44-0.02-0.61-0.02h-40.7c-0.12,0-0.26,0.01-0.4,0.01c-4.17,0-4.17-2.65-4.18-12.52c0-3.06,0-6.87-0.12-11.57
		c0-6.48,1.31-21.16,3.12-34.9C902.13,2,903.92,2,904.6,2h15.9c1.53,0,2.4,0.91,2.4,2.5c0,0.56-0.45,1.72-1.47,4.3
		c-3.03,7.65-10.13,25.57-10.13,47c0,10.86,3.8,16.6,11,16.6c5.87,0,10.34-3.66,13.3-6.08c1.72-1.41,2.96-2.42,4-2.42
		c2.55,0,6.3,20.1,6.3,20.3c0,0.8-0.4,1.4-1.15,1.74C944.26,86.15,943.62,86.26,942.75,86.26z M1578.31,86.25
		c-0.31,0-0.61-0.02-0.87-0.03c-0.17-0.01-0.33-0.02-0.44-0.02h-14.7c-0.9,0-3.3,0-3.3-33.6c0-0.51,1.23-50.6,7.3-50.6h13.6
		c0.07,0,0.18-0.01,0.3-0.01c0.21-0.01,0.47-0.02,0.74-0.02c1.63,0,2.46,0.48,2.46,1.43c0,0.41-0.34,1.33-1.17,3.55
		c-1.97,5.27-5.63,15.09-5.63,22.85c0,2.43,0.85,4.4,1.9,4.4c0.89,0,1.49-0.27,2.39-0.69c1.99-0.92,5-2.31,14.31-2.31
		c0.9,0,1.76,0.04,2.58,0.07c0.71,0.03,1.38,0.06,2,0.06c2.82,0,3.72-0.66,3.72-2.73c0-6.82-4.66-16.26-7.17-21.33
		c-1.21-2.45-1.63-3.32-1.63-3.77c0-1.02,1-1.53,2.98-1.53c0.32,0,0.6,0.01,0.83,0.02c0.12,0,0.22,0.01,0.29,0.01h13.1
		c4.74,0,9.2,31.57,9.2,50.6c0,33.6-2.78,33.6-3.7,33.6l-14.8,0c-0.94,0-3.8,0-3.8-2c0-0.59,0.12-1.17,0.35-1.62
		c3.13-8.23,6.35-18.07,6.35-28.28c0-6.35-2.33-8.6-8.9-8.6c-10.15,0-20.4,4.92-20.4,15.9c0,7.63,1.44,15.23,4.06,21.41
		c0.21,0.41,0.44,1.19,0.44,1.7c0,0.6-0.32,1.07-0.91,1.32C1579.42,86.18,1578.95,86.25,1578.31,86.25z M2710.81,86.24
		c-0.27,0-0.53-0.01-0.77-0.02c-0.2-0.01-0.38-0.01-0.54-0.01h-45.9c-0.12,0-0.26,0.01-0.4,0.01c-4.17,0-4.17-2.65-4.18-12.53
		c0-3.06,0-6.87-0.12-11.57c0-6.48,1.31-21.16,3.12-34.9C2665.33,2,2667.12,2,2667.8,2l39.51,0l0.31-0.01
		c0.22,0,0.46-0.01,0.73-0.01c1.03,0,4.16,0,4.16,2.22c0,0.15-6.17,15.3-8.2,15.3c-0.65,0-1.32-0.45-2.25-1.06
		c-2.05-1.36-5.48-3.64-12.25-3.64c-6.82,0-13.7,4.08-13.7,13.2c0,1.94,0.35,5.2,2.7,5.2c1.13,0,2.94-0.69,5.04-1.5
		c3.53-1.35,8.37-3.2,13.66-3.2c0.05,0,5,0.03,5,2.6c0,0.17-5.5,16.9-7.3,16.9c-0.42,0-1.06-0.22-2.02-0.55
		c-1.66-0.58-4.18-1.45-6.68-1.45c-4.82,0-12,3.49-12,13.1c0,8.33,4.52,13.3,12.1,13.3c6.5,0,11.35-2.92,14.55-4.85
		c1.69-1.02,2.92-1.75,3.85-1.75c2.29,0,8.7,18.22,8.7,18.4c0,0.8-0.36,1.39-1.05,1.72C2712.06,86.2,2711.32,86.24,2710.81,86.24z
		 M1682.01,86.24c-0.27,0-0.53-0.01-0.77-0.02c-0.2-0.01-0.38-0.01-0.54-0.01h-45.9c-0.12,0-0.26,0.01-0.4,0.01
		c-4.17,0-4.17-2.65-4.18-12.53c0-3.06,0-6.87-0.12-11.57c0-6.48,1.31-21.16,3.12-34.9C1636.53,2,1638.32,2,1639,2l39.51,0
		l0.31-0.01c0.22,0,0.46-0.01,0.73-0.01c1.03,0,4.16,0,4.16,2.22c0,0.15-6.17,15.3-8.2,15.3c-0.65,0-1.32-0.45-2.25-1.06
		c-2.05-1.36-5.48-3.64-12.25-3.64c-6.82,0-13.7,4.08-13.7,13.2c0,1.94,0.35,5.2,2.7,5.2c1.13,0,2.94-0.69,5.04-1.5
		c3.53-1.35,8.37-3.2,13.66-3.2c0.05,0,5,0.03,5,2.6c0,0.17-5.5,16.9-7.3,16.9c-0.42,0-1.06-0.22-2.02-0.55
		c-1.66-0.58-4.18-1.45-6.68-1.45c-4.82,0-12,3.49-12,13.1c0,8.33,4.52,13.3,12.1,13.3c6.5,0,11.35-2.92,14.55-4.85
		c1.69-1.02,2.92-1.75,3.85-1.75c2.29,0,8.7,18.22,8.7,18.4c0,0.8-0.36,1.39-1.05,1.72C1683.26,86.2,1682.52,86.24,1682.01,86.24z
		 M1138.51,86.24c-0.27,0-0.53-0.01-0.77-0.02c-0.2-0.01-0.38-0.01-0.54-0.01h-45.9c-0.12,0-0.26,0.01-0.4,0.01
		c-4.17,0-4.17-2.65-4.18-12.53c0-3.06,0-6.87-0.12-11.57c0-6.48,1.31-21.16,3.12-34.9C1093.03,2,1094.82,2,1095.5,2l39.51,0
		l0.31-0.01c0.22,0,0.46-0.01,0.73-0.01c1.03,0,4.16,0,4.16,2.22c0,0.15-6.17,15.3-8.2,15.3c-0.65,0-1.32-0.45-2.25-1.06
		c-2.05-1.36-5.48-3.64-12.25-3.64c-6.82,0-13.7,4.08-13.7,13.2c0,1.94,0.35,5.2,2.7,5.2c1.13,0,2.94-0.69,5.04-1.5
		c3.53-1.35,8.37-3.2,13.66-3.2c0.05,0,5,0.03,5,2.6c0,0.17-5.5,16.9-7.3,16.9c-0.42,0-1.06-0.22-2.02-0.55
		c-1.66-0.58-4.18-1.45-6.68-1.45c-4.82,0-12,3.49-12,13.1c0,8.33,4.52,13.3,12.1,13.3c6.5,0,11.35-2.92,14.55-4.85
		c1.69-1.02,2.92-1.75,3.85-1.75c2.29,0,8.7,18.22,8.7,18.4c0,0.8-0.36,1.39-1.05,1.72C1139.76,86.2,1139.02,86.24,1138.51,86.24z
		 M794.41,86.24c-0.27,0-0.53-0.01-0.77-0.02c-0.2-0.01-0.38-0.01-0.54-0.01h-45.9c-0.12,0-0.26,0.01-0.4,0.01
		c-4.17,0-4.17-2.65-4.18-12.53c0-3.06-0.01-6.87-0.12-11.57c0-6.48,1.31-21.16,3.12-34.9C748.93,2,750.72,2,751.4,2l39.51,0
		l0.31-0.01c0.22,0,0.46-0.01,0.73-0.01c1.03,0,4.16,0,4.16,2.22c0,0.15-6.17,15.3-8.2,15.3c-0.65,0-1.32-0.45-2.25-1.06
		c-2.05-1.36-5.48-3.64-12.25-3.64c-6.82,0-13.7,4.08-13.7,13.2c0,1.94,0.35,5.2,2.7,5.2c1.13,0,2.94-0.69,5.04-1.5
		c3.53-1.35,8.37-3.2,13.66-3.2c0.05,0,5,0.03,5,2.6c0,0.17-5.5,16.9-7.3,16.9c-0.42,0-1.06-0.22-2.02-0.55
		c-1.66-0.58-4.18-1.45-6.68-1.45c-4.82,0-12,3.49-12,13.1c0,8.33,4.52,13.3,12.1,13.3c6.5,0,11.35-2.92,14.55-4.85
		c1.69-1.02,2.91-1.75,3.84-1.75c2.29,0,8.7,18.22,8.7,18.4c0,0.8-0.36,1.39-1.05,1.72C795.66,86.2,794.92,86.24,794.41,86.24z
		 M2616.89,86.23c-0.27,0-0.52-0.01-0.73-0.02c-0.14-0.01-0.26-0.01-0.35-0.01h-13.38c0,0-0.5,0.02-0.62,0.02
		c-3,0-5.3-2.66-5.3-36.12c0-48.11,4.91-48.11,7.01-48.11L2603.9,2h30.7c19.73,0,20.3,16.43,20.3,18.3
		c0,16.19-13.98,24.15-25.21,30.55c-7.46,4.25-13.89,7.91-13.89,12.75c0,6.57,2.16,15.49,3.08,19.3c0.34,1.41,0.42,1.73,0.42,1.9
		c0,0.33-0.12,0.94-0.95,1.24C2617.98,86.17,2617.51,86.23,2616.89,86.23z M2626.2,14.8c-3.03,0-5.92,0.18-8.09,2.36
		c-3.06,3.07-4.46,9.82-4.41,21.24c0,2.78,0.39,4.1,2.6,4.1c5.19,0,21.4-12.34,21.4-19C2637.7,15.65,2629.66,14.8,2626.2,14.8z
		 M1739.19,86.23c-0.27,0-0.52-0.01-0.73-0.02c-0.14-0.01-0.26-0.01-0.35-0.01h-13.38c0,0-0.5,0.02-0.62,0.02
		c-3,0-5.3-2.66-5.3-36.12c0-48.11,4.91-48.11,7.01-48.11L1726.2,2h30.7c19.73,0,20.3,16.43,20.3,18.3
		c0,16.19-13.98,24.15-25.21,30.55c-7.45,4.25-13.89,7.91-13.89,12.75c0,6.57,2.16,15.49,3.08,19.3c0.34,1.41,0.42,1.73,0.42,1.9
		c0,0.33-0.12,0.94-0.95,1.24C1740.28,86.17,1739.81,86.23,1739.19,86.23z M1748.5,14.8c-3.03,0-5.92,0.18-8.09,2.36
		c-3.06,3.07-4.46,9.82-4.41,21.24c0,2.78,0.39,4.1,2.6,4.1c5.19,0,21.4-12.34,21.4-19C1760,15.65,1751.96,14.8,1748.5,14.8z
		 M2405.5,86.22c-3,0-5.3-2.66-5.3-36.12c0-48.11,4.91-48.11,7.01-48.11L2407.6,2l10.92,0l0.34-0.01c0.2,0,0.41-0.01,0.63-0.01
		c0.79,0,3.21,0,3.21,2.12c0,0.24-0.12,0.72-0.49,2.21c-1.31,5.23-4.81,19.13-4.81,34.79c0,20.69,3.28,35.45,4.52,41.01
		c0.34,1.54,0.48,2.18,0.48,2.49c0,1.6-1.3,1.6-2,1.6h-14.27C2406.12,86.2,2405.62,86.22,2405.5,86.22z M1989.1,86.22
		c-3,0-5.3-2.66-5.3-36.12c0-48.11,4.91-48.11,7.01-48.11L1991.2,2l10.92,0l0.34-0.01c0.2,0,0.41-0.01,0.63-0.01
		c0.79,0,3.2,0,3.2,2.12c0,0.24-0.12,0.72-0.49,2.21c-1.31,5.23-4.81,19.13-4.81,34.79c0,20.69,3.28,35.45,4.52,41.01
		c0.34,1.54,0.48,2.18,0.48,2.49c0,1.6-1.3,1.6-2,1.6h-14.28C1989.72,86.2,1989.22,86.22,1989.1,86.22z M1276.6,86.22
		c-3,0-5.3-2.66-5.3-36.12c0-48.11,4.91-48.11,7.01-48.11L1278.7,2h25.9c13.87,0,20.9,5.08,20.9,15.1c0,7.38-5.04,12.79-8.37,16.37
		c-1.62,1.74-3.03,3.25-3.03,4.13s1.65,2.5,3.55,4.38c4.69,4.62,12.55,12.36,12.55,24.42c0,4.65-1.64,19.8-22.8,19.8h-30.18
		C1277.22,86.2,1276.72,86.22,1276.6,86.22z M1302,45.7c-1.02,0-2.53,0.84-3.54,1.4l-0.42,0.23l-6.5,3.5l-0.6,0.33
		c-2.29,1.25-3.44,1.88-3.44,4.63c0,14.96,3.68,16.6,11.5,16.6c3.28,0,14-0.73,14-10.1C1313,55.41,1304.24,45.7,1302,45.7z
		 M1300.8,14.8c-8.8,0-13.9,3.17-13.9,19.4l0,0.38c-0.01,1.21-0.02,2.57,0.65,3.24c0.32,0.32,0.8,0.48,1.45,0.48
		c1.05,0,3.54-1.03,5.12-2.11l7.29-5.19c2.78-2.01,6.89-6.8,6.89-10.69C1308.3,15.75,1304.22,14.8,1300.8,14.8z M1151.6,86.22
		c-3,0-5.3-2.66-5.3-36.12c0-48.11,4.91-48.11,7.01-48.11L1153.7,2h17c11.78,0,36.1,12.69,36.1,51.9c0,20.53-10.42,32.3-28.6,32.3
		h-25.98C1152.22,86.2,1151.72,86.22,1151.6,86.22z M1170.8,14.8c-6.24,0-7.9,11.75-7.9,18.7v14.3c0,21.68,5.91,24.6,11.7,24.6
		c6.03,0,15-6.02,15-22.6C1189.6,25.37,1177.15,14.8,1170.8,14.8z M242.2,86.22c-3,0-5.3-2.66-5.3-36.12
		c0-48.11,4.91-48.11,7.01-48.11L244.3,2h17c11.78,0,36.1,12.69,36.1,51.9c0,20.53-10.42,32.3-28.6,32.3h-25.98
		C242.82,86.2,242.32,86.22,242.2,86.22z M261.4,14.8c-6.24,0-7.9,11.75-7.9,18.7v14.3c0,21.68,5.91,24.6,11.7,24.6
		c6.03,0,15-6.02,15-22.6C280.2,25.37,267.75,14.8,261.4,14.8z"/>
	<path class="st0" d="M2556.4,1c18.7,0,33.1,28.7,33.1,54.4c0,17.3-7.9,31.8-28.1,31.8h-10c-20.2,0-28.1-14.5-28.1-31.8
		C2523.3,29.7,2537.7,1,2556.4,1 M2556.4,69.4c10.6,0,16.9-4.5,16.9-16.2c0-22.1-10.2-36-16.9-36c-6.7,0-16.9,13.9-16.9,36
		C2539.5,64.9,2545.8,69.4,2556.4,69.4 M2459.2,1c14.5,0,24.8,7.7,24.8,10.6c0,2.8-5.2,11.9-8,11.9c-2.5,0-6.4-9-16.8-9
		c-5,0-11.4,2.5-11.4,8.3c0,7.2,9.9,10,15.4,11.9c21,7,25.3,17.1,25.3,26.6c0,11.6-8.3,25.9-29.4,25.9c-14.2,0-28.6-7.6-28.6-23.5
		c0-8.5,5.1-13.5,6.1-13.5c1.7,0,0,20.3,21.5,20.3c7.6,0,14.2-3.3,14.2-9.5c0-7.3-9-10.3-14.8-12.1c-21.9-6.8-24.3-16.7-24.3-25.2
		C2433.2,15.3,2438.9,1,2459.2,1 M2335.1,1c16.1,0,30.4,4.3,30.4,9c0,4.4-4.9,13.9-6,13.9c-1.7,0-5.8-8.3-13-8.3
		c-6.1,0-7.1,19.1-7.1,28.3c0,25.7,5.5,38.3,5.5,40.1c0,1.51-1.7,1.75-3.19,1.75c-0.68,0-1.31-0.05-1.71-0.05h-10.5
		c-0.41,0-0.94,0.19-1.51,0.19c-2.08,0-4.79-2.46-4.79-25.19c0-22.3,4.4-36.5,4.4-40.2c0-3,0.5-4.8-2-4.8
		c-7.1,0-19.6,11.5-21.3,11.5c-0.2,0-0.38,0.02-0.54,0.02c-0.56,0-0.86-0.24-0.86-2.42c0-3.1,2.7-15.5,4.2-18.3
		C2308.1,4.6,2321.6,1,2335.1,1 M2267.3,1c18.7,0,33.1,28.7,33.1,54.4c0,17.3-7.9,31.8-28.1,31.8h-10c-20.2,0-28.1-14.5-28.1-31.8
		C2234.2,29.7,2248.6,1,2267.3,1 M2267.3,69.4c10.6,0,16.9-4.5,16.9-16.2c0-22.1-10.2-36-16.9-36s-16.9,13.9-16.9,36
		C2250.4,64.9,2256.7,69.4,2267.3,69.4 M2121.2,1c8.7,0,22.1,3.7,22.1,14.5c0,5.8-4,9.1-10.3,9.1c-4.1,0,1.4-9.4-11.3-9.4
		c-15.8,0-21.3,17.9-21.3,31.8c0,10.9,3.1,22.4,16.2,22.4c6.2,0,12.9-2.6,12.9-9.6c0-8.1-7.9-8.8-7.9-11.4c0-1.3,17.2-7.5,18.4-7.5
		c2,0,4.3,24.4,4.3,27.4c0,13.1-13,18.9-25.4,18.9c-23.2,0-34.7-16-34.7-38.3C2084.2,25.3,2097.3,1,2121.2,1 M1814.1,1
		c3.3,0,29.1,14.3,29.1,60.7c0,22.21-2.97,24.08-5.7,24.08c-0.55,0-1.09-0.08-1.6-0.08l-11.29,0c-0.26,0-0.64,0.02-1.05,0.02
		c-1.17,0-2.65-0.15-2.65-1.22c0-2.8,7.7-12.8,7.7-24.2c0-4.5-4.3-6.2-8.8-6.2c-9.1,0-23.6,1.6-23.6,13c0,7.9,6.5,16.4,6.5,17.9
		c0,0.6-0.6,0.7-1.9,0.7h-14.3c-5.1,0-6.5-9-6.5-22C1780,20.9,1809.7,1,1814.1,1 M1800.3,43.2c1.8,0,11.5-2.6,20.3-2.6
		c3.5,0,5.1-0.5,5.1-3.3c0-6.2-7.4-19.2-11.2-19.2c-5.4,0-16.1,15.9-16.1,23.2C1798.4,42.5,1799.1,43.2,1800.3,43.2 M1524.1,1
		c16.1,0,30.4,4.3,30.4,9c0,4.4-4.9,13.9-6,13.9c-1.7,0-5.8-8.3-13-8.3c-6.1,0-7.1,19.1-7.1,28.3c0,25.7,5.5,38.3,5.5,40.1
		c0,1.51-1.7,1.75-3.19,1.75c-0.68,0-1.31-0.05-1.71-0.05h-10.5c-0.41,0-0.94,0.19-1.51,0.19c-2.08,0-4.79-2.46-4.79-25.19
		c0-22.3,4.4-36.5,4.4-40.2c0-3,0.5-4.8-2-4.8c-7.1,0-19.6,11.5-21.3,11.5c-0.2,0-0.38,0.02-0.54,0.02c-0.56,0-0.86-0.24-0.86-2.42
		c0-3.1,2.7-15.5,4.2-18.3C1497.1,4.6,1510.6,1,1524.1,1 M1432.5,1c16.1,0,30.4,4.3,30.4,9c0,4.4-4.9,13.9-6,13.9
		c-1.7,0-5.8-8.3-13-8.3c-6.1,0-7.1,19.1-7.1,28.3c0,25.7,5.5,38.3,5.5,40.1c0,1.51-1.7,1.75-3.19,1.75c-0.68,0-1.31-0.05-1.71-0.05
		h-10.5c-0.41,0-0.94,0.19-1.51,0.19c-2.08,0-4.79-2.46-4.79-25.19c0-22.3,4.4-36.5,4.4-40.2c0-3,0.5-4.8-2-4.8
		c-7.1,0-19.6,11.5-21.3,11.5c-0.2,0-0.38,0.02-0.54,0.02c-0.56,0-0.86-0.24-0.86-2.42c0-3.1,2.7-15.5,4.2-18.3
		C1405.5,4.6,1419,1,1432.5,1 M1049.5,1c14.5,0,24.8,7.7,24.8,10.6c0,2.8-5.2,11.9-8,11.9c-2.5,0-6.4-9-16.8-9
		c-5,0-11.4,2.5-11.4,8.3c0,7.2,9.9,10,15.4,11.9c21,7,25.3,17.1,25.3,26.6c0,11.6-8.3,25.9-29.4,25.9c-14.2,0-28.6-7.6-28.6-23.5
		c0-8.5,5.1-13.5,6.1-13.5c1.7,0,0,20.3,21.5,20.3c7.6,0,14.2-3.3,14.2-9.5c0-7.3-9-10.3-14.8-12.1c-21.9-6.8-24.3-16.7-24.3-25.2
		C1023.5,15.3,1029.2,1,1049.5,1 M981.9,1c18.7,0,33.1,28.7,33.1,54.4c0,17.3-7.9,31.8-28.1,31.8h-10c-20.2,0-28.1-14.5-28.1-31.8
		C948.8,29.7,963.2,1,981.9,1 M981.9,69.4c10.6,0,16.9-4.5,16.9-16.2c0-22.1-10.2-36-16.9-36c-6.7,0-16.9,13.9-16.9,36
		C965,64.9,971.3,69.4,981.9,69.4 M865.7,1c8.7,0,22.1,3.7,22.1,14.5c0,5.8-4,9.1-10.3,9.1c-4.1,0,1.4-9.4-11.3-9.4
		c-14.6,0-20.8,14.9-20.8,27.4c0,19.1,13,26.8,21.7,26.8c16.3,0,17.7-14.6,18.6-14.6c1.4,0,2.2,8,2.2,9c0,14.8-11.4,23.4-25.4,23.4
		c-22.7,0-33.3-20.6-33.3-40.8C829.2,24.7,841.4,1,865.7,1 M639.2,1c3.3,0,29.1,14.3,29.1,60.7c0,22.21-2.97,24.08-5.7,24.08
		c-0.55,0-1.09-0.08-1.6-0.08l-11.29,0c-0.26,0-0.64,0.02-1.05,0.02c-1.17,0-2.65-0.15-2.65-1.22c0-2.8,7.7-12.8,7.7-24.2
		c0-4.5-4.3-6.2-8.8-6.2c-9.1,0-23.6,1.6-23.6,13c0,7.9,6.5,16.4,6.5,17.9c0,0.6-0.6,0.7-1.9,0.7h-14.3c-5.1,0-6.5-9-6.5-22
		C605.1,20.9,634.8,1,639.2,1 M625.4,43.2c1.8,0,11.5-2.6,20.3-2.6c3.5,0,5.1-0.5,5.1-3.3c0-6.2-7.4-19.2-11.2-19.2
		c-5.4,0-16.1,15.9-16.1,23.2C623.5,42.5,624.2,43.2,625.4,43.2 M540.2,1C554.7,1,565,8.7,565,11.6c0,2.8-5.2,11.9-8,11.9
		c-2.5,0-6.4-9-16.8-9c-5,0-11.4,2.5-11.4,8.3c0,7.2,9.9,10,15.4,11.9c21,7,25.3,17.1,25.3,26.6c0,11.6-8.3,25.9-29.4,25.9
		c-14.2,0-28.6-7.6-28.6-23.5c0-8.5,5.1-13.5,6.1-13.5c1.7,0,0,20.3,21.5,20.3c7.6,0,14.2-3.3,14.2-9.5c0-7.3-9-10.3-14.8-12.1
		c-21.9-6.8-24.3-16.7-24.3-25.2C514.2,15.3,519.9,1,540.2,1 M406.2,1c18.7,0,33.1,28.7,33.1,54.4c0,17.3-7.9,31.8-28.1,31.8h-10
		c-20.2,0-28.1-14.5-28.1-31.8C373.1,29.7,387.5,1,406.2,1 M406.2,69.4c10.6,0,16.9-4.5,16.9-16.2c0-22.1-10.2-36-16.9-36
		c-6.7,0-16.9,13.9-16.9,36C389.3,64.9,395.6,69.4,406.2,69.4 M335,1c18.7,0,33.1,28.7,33.1,54.4c0,17.3-7.9,31.8-28.1,31.8h-10
		c-20.2,0-28.1-14.5-28.1-31.8C301.9,29.7,316.3,1,335,1 M335,69.4c10.6,0,16.9-4.5,16.9-16.2c0-22.1-10.2-36-16.9-36
		s-16.9,13.9-16.9,36C318.1,64.9,324.4,69.4,335,69.4 M34.1,1c18.7,0,33.1,28.7,33.1,54.4c0,17.3-7.9,31.8-28.1,31.8h-10
		C8.9,87.2,1,72.7,1,55.4C1,29.7,15.4,1,34.1,1 M34.1,69.4c10.6,0,16.9-4.5,16.9-16.2c0-22.1-10.2-36-16.9-36s-16.9,13.9-16.9,36
		C17.2,64.9,23.5,69.4,34.1,69.4 M1970.67,2.46c0.95,0,1.93,0.18,1.93,1.24c0,14.9-17,30.5-17,32.5c0,2.2,19.2,18.1,19.2,47.4
		c0,1.87-1.01,2.16-2.36,2.16c-0.6,0-1.27-0.06-1.94-0.06h-12.2c-2.5,0-2.2-2.9-2.2-4c-0.5-22.7-9.3-33.4-11-33.4
		c-2.4,0-11,7.4-11,13.1c0,4,3.4,21.8,3.4,22.6c0,1.2-0.8,1.7-1.9,1.7l-12.28,0c-0.21,0-0.41,0.02-0.63,0.02
		c-2.33,0-4.8-1.57-4.8-35.62c0-46.05,4.52-47.61,6.51-47.61c0.14,0,0.28,0.01,0.39,0.01l10.22,0c0.28,0,0.59-0.02,0.91-0.02
		c1.15,0,2.36,0.17,2.36,1.62c0,0.1-4.9,14.4-4.9,28.8c0,1.1-0.3,6.3,1.7,6.3c2.2,0,17-17.2,21.8-34c0.7-2.2,0.6-2.6,2.9-2.7h9.6
		C1969.73,2.5,1970.2,2.46,1970.67,2.46 M1580.94,2.47c0.89,0,1.96,0.13,1.96,0.93c0,1.3-6.8,15.8-6.8,26.4c0,2.5,0.9,4.9,2.4,4.9
		c3.1,0,3.1-3,16.7-3c1.68,0,3.25,0.13,4.58,0.13c2.54,0,4.22-0.47,4.22-3.23c0-9.5-8.8-23.8-8.8-25.1c0-0.89,1.4-1.03,2.48-1.03
		c0.5,0,0.93,0.03,1.12,0.03h13.1c3.8,0,8.7,28.8,8.7,50.1c0,4.8,0,33.1-3.2,33.1l-14.62,0c-0.05,0-0.11,0-0.17,0
		c-1.18,0-3.31-0.08-3.31-1.5c0-0.5,0.1-1,0.3-1.4c3.5-9.2,6.4-18.6,6.4-28.5c0-6.8-2.7-9.1-9.4-9.1c-10.1,0-20.9,4.8-20.9,16.4
		c0,7.2,1.3,15,4.1,21.6c0.2,0.4,0.4,1.1,0.4,1.5c0,0.89-0.97,1.05-1.88,1.05c-0.52,0-1.02-0.05-1.32-0.05h-14.7
		c-2.8,0-2.8-28.8-2.8-33.1c0-7.3,2-50.1,6.8-50.1h13.6C1580.1,2.5,1580.5,2.47,1580.94,2.47 M2763.78,2.47
		c0.56,0,1.15,0.03,1.72,0.03l7.67,0c0.13,0,0.27-0.01,0.41-0.01c2.34,0,6.42,1.57,6.42,47.61c0,34.05-2.47,35.62-4.8,35.62
		c-0.24,0-0.47-0.02-0.7-0.02H2764c-6.9,0-0.7-6.2-16.3-37.8c-1.3-2.7-10.1-19.5-13.3-19.5c-2.5,0-1.8,10.9-1.8,12.9
		c0,28.2,4.1,38.4,4.1,43.5c0,0.8-0.73,0.96-1.5,0.96c-0.47,0-0.96-0.06-1.3-0.06l-9.38,0c-0.21,0-0.41,0.02-0.62,0.02
		c-2.33,0-4.8-1.57-4.8-35.62c0-46.05,4.52-47.61,6.51-47.61c0.14,0,0.28,0.01,0.39,0.01h7.9c3.8,0,11.4,8,30.1,42.6
		c0.3,0.5,0.8,1.8,1.7,1.8c1,0,0.8-4.3,0.8-5.7c0-18.7-5.1-35.3-5.1-37.6C2761.4,2.62,2762.48,2.47,2763.78,2.47 M2060.48,2.47
		c0.56,0,1.15,0.03,1.72,0.03l7.67,0c0.13,0,0.27-0.01,0.41-0.01c2.34,0,6.42,1.57,6.42,47.61c0,34.05-2.47,35.62-4.8,35.62
		c-0.24,0-0.47-0.02-0.7-0.02h-10.5c-6.9,0-0.7-6.2-16.3-37.8c-1.3-2.7-10.1-19.5-13.3-19.5c-2.5,0-1.8,10.9-1.8,12.9
		c0,28.2,4.1,38.4,4.1,43.5c0,0.8-0.73,0.96-1.5,0.96c-0.47,0-0.96-0.06-1.3-0.06l-9.38,0c-0.21,0-0.41,0.02-0.63,0.02
		c-2.33,0-4.8-1.57-4.8-35.62c0-46.05,4.52-47.61,6.51-47.61c0.14,0,0.28,0.01,0.39,0.01h7.9c3.8,0,11.4,8,30.1,42.6
		c0.3,0.5,0.8,1.8,1.7,1.8c1,0,0.8-4.3,0.8-5.7c0-18.7-5.1-35.3-5.1-37.6C2058.1,2.62,2059.18,2.47,2060.48,2.47 M1380.22,2.48
		c0.44,0,0.84,0.02,1.08,0.02h9.8c2,0,5.9,1.6,5.9,37.6c0,29.4-9,47.1-30.4,47.1c-18.8,0-30.3-14.5-30.3-44.4
		c0-32,3.8-40.3,5.1-40.3h13.9c1,0,2.2,0,2.2,1.3c0,2.3-5,12.9-5,35.9c0,22.7,8.2,29.7,14.1,29.7c5,0,15.8-1.3,15.8-28.7
		c0-26-4.9-35.1-4.9-36.9C1377.5,2.64,1379.03,2.48,1380.22,2.48 M116.92,2.48c0.44,0,0.84,0.02,1.08,0.02h9.8c2,0,5.9,1.6,5.9,37.6
		c0,29.4-9,47.1-30.4,47.1C84.5,87.2,73,72.7,73,42.8c0-32,3.8-40.3,5.1-40.3H92c1,0,2.2,0,2.2,1.3c0,2.3-5,12.9-5,35.9
		c0,22.7,8.2,29.7,14.1,29.7c5,0,15.8-1.3,15.8-28.7c0-26-4.9-35.1-4.9-36.9C114.2,2.64,115.73,2.48,116.92,2.48 M2419.49,2.48
		c1.26,0,2.71,0.17,2.71,1.62c0,1-5.3,17.7-5.3,37c0,25.6,5,42.1,5,43.5c0,1-0.6,1.1-1.5,1.1l-14.27,0c-0.21,0-0.41,0.02-0.63,0.02
		c-2.33,0-4.8-1.57-4.8-35.62c0-46.05,4.52-47.61,6.51-47.61c0.15,0,0.28,0.01,0.39,0.01l10.92,0
		C2418.81,2.5,2419.15,2.48,2419.49,2.48 M2003.09,2.48c1.26,0,2.71,0.17,2.71,1.62c0,1-5.3,17.7-5.3,37c0,25.6,5,42.1,5,43.5
		c0,1-0.6,1.1-1.5,1.1l-14.28,0c-0.21,0-0.41,0.02-0.63,0.02c-2.33,0-4.8-1.57-4.8-35.62c0-46.05,4.52-47.61,6.51-47.61
		c0.14,0,0.28,0.01,0.39,0.01l10.93,0C2002.41,2.5,2002.75,2.48,2003.09,2.48 M2708.34,2.48c1.53,0,3.66,0.18,3.66,1.72
		c0,0.8-6.4,14.8-7.7,14.8c-1.7,0-4.7-4.7-14.5-4.7c-6.9,0-14.2,4.1-14.2,13.7c0,2.1,0.4,5.7,3.2,5.7c3.2,0,10.3-4.7,18.7-4.7
		c1.2,0,4.5,0.4,4.5,2.1c0,0.1-5.6,16.4-6.8,16.4c-1,0-4.8-2-8.7-2c-5.1,0-12.5,3.7-12.5,13.6c0,8,4.2,13.8,12.6,13.8
		c9.9,0,16-6.6,18.4-6.6c1.5,0,8.2,16.9,8.2,17.9c0,1.34-1.24,1.54-2.39,1.54c-0.49,0-0.95-0.04-1.31-0.04h-45.9
		c-0.14,0.01-0.27,0.01-0.4,0.01c-4.82,0-3.32-3.83-3.8-23.61c0-13.4,5.5-59.6,8.4-59.6l39.51,0
		C2707.58,2.5,2707.94,2.48,2708.34,2.48 M1679.54,2.48c1.53,0,3.66,0.18,3.66,1.72c0,0.8-6.4,14.8-7.7,14.8
		c-1.7,0-4.7-4.7-14.5-4.7c-6.9,0-14.2,4.1-14.2,13.7c0,2.1,0.4,5.7,3.2,5.7c3.2,0,10.3-4.7,18.7-4.7c1.2,0,4.5,0.4,4.5,2.1
		c0,0.1-5.6,16.4-6.8,16.4c-1,0-4.8-2-8.7-2c-5.1,0-12.5,3.7-12.5,13.6c0,8,4.2,13.8,12.6,13.8c9.9,0,16-6.6,18.4-6.6
		c1.5,0,8.2,16.9,8.2,17.9c0,1.34-1.24,1.54-2.39,1.54c-0.48,0-0.95-0.04-1.31-0.04h-45.9c-0.14,0.01-0.27,0.01-0.4,0.01
		c-4.82,0-3.32-3.83-3.8-23.61c0-13.4,5.5-59.6,8.4-59.6l39.51,0C1678.78,2.5,1679.14,2.48,1679.54,2.48 M1136.04,2.48
		c1.53,0,3.66,0.18,3.66,1.72c0,0.8-6.4,14.8-7.7,14.8c-1.7,0-4.7-4.7-14.5-4.7c-6.9,0-14.2,4.1-14.2,13.7c0,2.1,0.4,5.7,3.2,5.7
		c3.2,0,10.3-4.7,18.7-4.7c1.2,0,4.5,0.4,4.5,2.1c0,0.1-5.6,16.4-6.8,16.4c-1,0-4.8-2-8.7-2c-5.1,0-12.5,3.7-12.5,13.6
		c0,8,4.2,13.8,12.6,13.8c9.9,0,16-6.6,18.4-6.6c1.5,0,8.2,16.9,8.2,17.9c0,1.34-1.24,1.54-2.39,1.54c-0.48,0-0.95-0.04-1.31-0.04
		h-45.9c-0.14,0.01-0.27,0.01-0.4,0.01c-4.82,0-3.32-3.83-3.8-23.61c0-13.4,5.5-59.6,8.4-59.6l39.51,0
		C1135.28,2.5,1135.64,2.48,1136.04,2.48 M791.94,2.48c1.53,0,3.66,0.18,3.66,1.72c0,0.8-6.4,14.8-7.7,14.8c-1.7,0-4.7-4.7-14.5-4.7
		c-6.9,0-14.2,4.1-14.2,13.7c0,2.1,0.4,5.7,3.2,5.7c3.2,0,10.3-4.7,18.7-4.7c1.2,0,4.5,0.4,4.5,2.1c0,0.1-5.6,16.4-6.8,16.4
		c-1,0-4.8-2-8.7-2c-5.1,0-12.5,3.7-12.5,13.6c0,8,4.2,13.8,12.6,13.8c9.9,0,16-6.6,18.4-6.6c1.5,0,8.2,16.9,8.2,17.9
		c0,1.34-1.24,1.54-2.39,1.54c-0.48,0-0.95-0.04-1.31-0.04h-45.9c-0.14,0.01-0.27,0.01-0.4,0.01c-4.82,0-3.32-3.83-3.8-23.61
		c0-13.4,5.5-59.6,8.4-59.6l39.51,0C791.18,2.5,791.54,2.48,791.94,2.48 M2603.51,2.49c0.15,0,0.28,0.01,0.39,0.01h30.7
		c16.4,0,19.8,11.9,19.8,17.8c0,26.8-39.1,30.7-39.1,43.3c0,8.4,3.5,20.6,3.5,21.2c0,0.8-1.02,0.93-1.91,0.93
		c-0.44,0-0.86-0.03-1.09-0.03l-13.38,0c-0.21,0-0.41,0.02-0.62,0.02c-2.33,0-4.8-1.56-4.8-35.62
		C2597,4.05,2601.52,2.49,2603.51,2.49 M2616.3,43c5.2,0,21.9-12.3,21.9-19.5c0-6.9-6-9.2-12-9.2c-7.2,0-13.1,1.1-13,24.1
		C2613.2,40.8,2613.4,43,2616.3,43 M1858.01,2.49c0.14,0,0.28,0.01,0.39,0.01h26.5c18.6,0,23.3,10.2,23.3,18.7c0,16-15,20.9-15,23.7
		c0,2.8,18,15.9,18,39.5c0,1.1-0.4,1.3-2.5,1.3l-11.46,0c-0.46,0-0.98,0.02-1.51,0.02c-1.59,0-3.23-0.16-3.23-1.32
		c0-11.3-8-31.6-13.8-31.6c-3,0-10.3,4.1-10.3,9.7c0,7.6,3.7,21.3,3.7,22c0,1.07-0.99,1.27-1.97,1.27c-0.58,0-1.15-0.07-1.53-0.07
		l-11.68,0c-0.21,0-0.41,0.02-0.62,0.02c-2.33,0-4.8-1.57-4.8-35.62C1851.5,4.05,1856.02,2.49,1858.01,2.49 M1870.8,41
		c3.4,0,21.2-8.9,21.2-18.1c0-6.3-5.9-8.6-11.3-8.6c-9.1,0-13.1,3.3-13,20.6C1867.7,37,1867.8,41,1870.8,41 M1725.81,2.49
		c0.14,0,0.28,0.01,0.39,0.01h30.7c16.4,0,19.8,11.9,19.8,17.8c0,26.8-39.1,30.7-39.1,43.3c0,8.4,3.5,20.6,3.5,21.2
		c0,0.8-1.02,0.93-1.91,0.93c-0.44,0-0.86-0.03-1.09-0.03l-13.38,0c-0.21,0-0.41,0.02-0.62,0.02c-2.33,0-4.8-1.56-4.8-35.62
		C1719.3,4.05,1723.82,2.49,1725.81,2.49 M1738.6,43c5.2,0,21.9-12.3,21.9-19.5c0-6.9-6-9.2-12-9.2c-7.2,0-13.1,1.1-13,24.1
		C1735.5,40.8,1735.7,43,1738.6,43 M1278.31,2.49c0.14,0,0.28,0.01,0.39,0.01h25.9c17.7,0,20.4,8.2,20.4,14.6
		c0,11-11.4,17.4-11.4,20.5c0,3.5,16.1,11.6,16.1,28.8c0,9.8-5.9,19.3-22.3,19.3l-30.18,0c-0.21,0-0.41,0.02-0.63,0.02
		c-2.33,0-4.8-1.57-4.8-35.62C1271.8,4.05,1276.32,2.49,1278.31,2.49 M1289,38.8c1.2,0,3.8-1.1,5.4-2.2l7.3-5.2
		c2.9-2.1,7.1-7,7.1-11.1c0-4.8-4.2-6-8-6c-9.9,0-14.4,4.3-14.4,19.9C1286.4,36.2,1286.2,38.8,1289,38.8 M1299,72.9
		c7.2,0,14.5-2.8,14.5-10.6c0-7.1-8.8-17.1-11.5-17.1c-1.3,0-3.1,1.1-4.2,1.7l-6.5,3.5c-2.7,1.5-4.3,2.1-4.3,5.4
		C1287,71,1290.8,72.9,1299,72.9 M1153.31,2.49c0.14,0,0.28,0.01,0.39,0.01h17c12.7,0,35.6,13.9,35.6,51.4
		c0,17.3-7.9,31.8-28.1,31.8l-25.97,0c-0.21,0-0.41,0.02-0.63,0.02c-2.33,0-4.8-1.57-4.8-35.62
		C1146.8,4.05,1151.32,2.49,1153.31,2.49 M1174.6,72.9c5.4,0,15.5-5.1,15.5-23.1c0-24.7-12.8-35.5-19.3-35.5c-7,0-8.4,12.9-8.4,19.2
		v14.3C1162.4,70.3,1169,72.9,1174.6,72.9 M683.11,2.49c0.14,0,0.28,0.01,0.39,0.01H710c18.6,0,23.3,10.2,23.3,18.7
		c0,16-15,20.9-15,23.7c0,2.8,18,15.9,18,39.5c0,1.1-0.4,1.3-2.5,1.3l-11.46,0c-0.46,0-0.98,0.02-1.51,0.02
		c-1.59,0-3.23-0.16-3.23-1.32c0-11.3-8-31.6-13.8-31.6c-3,0-10.3,4.1-10.3,9.7c0,7.6,3.7,21.3,3.7,22c0,1.07-0.99,1.27-1.97,1.27
		c-0.58,0-1.15-0.07-1.53-0.07l-11.67,0c-0.21,0-0.41,0.02-0.63,0.02c-2.33,0-4.8-1.57-4.8-35.62
		C676.6,4.05,681.12,2.49,683.11,2.49 M695.9,41c3.4,0,21.2-8.9,21.2-18.1c0-6.3-5.9-8.6-11.3-8.6c-9.1,0-13.1,3.3-13,20.6
		C692.8,37,692.9,41,695.9,41 M453.31,2.49c0.14,0,0.28,0.01,0.39,0.01h26.5c18.6,0,23.3,10.2,23.3,18.7c0,16-15,20.9-15,23.7
		c0,2.8,18,15.9,18,39.5c0,1.1-0.4,1.3-2.5,1.3l-11.46,0c-0.46,0-0.98,0.02-1.51,0.02c-1.59,0-3.23-0.16-3.23-1.32
		c0-11.3-8-31.6-13.8-31.6c-3,0-10.3,4.1-10.3,9.7c0,7.6,3.7,21.3,3.7,22c0,1.07-0.99,1.27-1.97,1.27c-0.58,0-1.15-0.07-1.53-0.07
		l-11.67,0c-0.21,0-0.41,0.02-0.63,0.02c-2.33,0-4.8-1.57-4.8-35.62C446.8,4.05,451.32,2.49,453.31,2.49 M466.1,41
		c3.4,0,21.2-8.9,21.2-18.1c0-6.3-5.9-8.6-11.3-8.6c-9.1,0-13.1,3.3-13,20.6C463,37,463.1,41,466.1,41 M243.91,2.49
		c0.14,0,0.28,0.01,0.39,0.01h17c12.7,0,35.6,13.9,35.6,51.4c0,17.3-7.9,31.8-28.1,31.8l-25.97,0c-0.21,0-0.41,0.02-0.63,0.02
		c-2.33,0-4.8-1.57-4.8-35.62C237.4,4.05,241.92,2.49,243.91,2.49 M265.2,72.9c5.4,0,15.5-5.1,15.5-23.1c0-24.7-12.8-35.5-19.3-35.5
		c-7,0-8.4,12.9-8.4,19.2v14.3C253,70.3,259.6,72.9,265.2,72.9 M148.51,2.49c0.14,0,0.28,0.01,0.39,0.01h26.5
		c18.6,0,23.3,10.2,23.3,18.7c0,16-15,20.9-15,23.7c0,2.8,18,15.9,18,39.5c0,1.1-0.4,1.3-2.5,1.3l-11.46,0
		c-0.46,0-0.98,0.02-1.51,0.02c-1.59,0-3.23-0.16-3.23-1.32c0-11.3-8-31.6-13.8-31.6c-3,0-10.3,4.1-10.3,9.7c0,7.6,3.7,21.3,3.7,22
		c0,1.07-0.99,1.27-1.97,1.27c-0.58,0-1.15-0.07-1.53-0.07l-11.67,0c-0.21,0-0.41,0.02-0.63,0.02c-2.33,0-4.8-1.57-4.8-35.62
		C142,4.05,146.52,2.49,148.51,2.49 M161.3,41c3.4,0,21.2-8.9,21.2-18.1c0-6.3-5.9-8.6-11.3-8.6c-9.1,0-13.1,3.3-13,20.6
		C158.2,37,158.3,41,161.3,41 M2205.9,2.5c0.7,0,1.9,0.2,1.9,2c0,2.2-11.6,23.7-11.6,51.3c0,13.8,6,17.1,11.5,17.1
		c9.2,0,14.8-8.5,17.3-8.5c1.9,0,5.8,19.3,5.8,19.8c0,1.33-1.38,1.56-2.65,1.56c-0.64,0-1.25-0.06-1.65-0.06h-40.7
		c-0.14,0.01-0.27,0.01-0.4,0.01c-4.82,0-3.32-3.83-3.8-23.61c0-13.4,5.5-59.6,8.4-59.6H2205.9 M920.5,2.5c0.7,0,1.9,0.2,1.9,2
		c0,2.2-11.6,23.7-11.6,51.3c0,13.8,6,17.1,11.5,17.1c9.2,0,14.8-8.5,17.3-8.5c1.9,0,5.8,19.3,5.8,19.8c0,1.33-1.38,1.56-2.65,1.56
		c-0.64,0-1.25-0.06-1.65-0.06h-40.7c-0.14,0.01-0.27,0.01-0.4,0.01c-4.82,0-3.32-3.83-3.8-23.61c0-13.4,5.5-59.6,8.4-59.6H920.5
		 M2799.3,65.2c6.3,0,11.4,4.8,11.4,11s-5.1,11-11.3,11c-6.2,0-11.1-5-11.1-11.1C2788.3,70.1,2793.3,65.2,2799.3,65.2 M1223.1,65.2
		c6.3,0,11.4,4.8,11.4,11s-5.1,11-11.3,11c-6.2,0-11.1-5-11.1-11.1C1212.1,70.1,1217.1,65.2,1223.1,65.2 M2556.4,0
		c-19.52,0-34.1,29.25-34.1,55.4c0,9.42,2.31,17.38,6.69,23c5.06,6.5,12.6,9.8,22.41,9.8h10c9.82,0,17.36-3.3,22.41-9.8
		c4.37-5.63,6.69-13.58,6.69-23C2590.5,29.25,2575.92,0,2556.4,0L2556.4,0z M2556.4,68.4c-10.85,0-15.9-4.83-15.9-15.2
		c0-9.74,2.07-18.9,5.82-25.81c3.03-5.58,6.99-9.19,10.08-9.19c3.09,0,7.05,3.61,10.08,9.19c3.75,6.91,5.82,16.07,5.82,25.81
		C2572.3,63.57,2567.25,68.4,2556.4,68.4L2556.4,68.4z M2459.2,0c-21.36,0-27,15.5-27,23.7c0,9.09,2.97,19.31,25,26.15
		c4.93,1.53,14.1,4.37,14.1,11.14c0,5.87-6.63,8.5-13.2,8.5c-15.97,0-18.43-11.49-19.61-17c-0.44-2.05-0.71-3.3-1.89-3.3
		c-1.83,0-7.1,5.7-7.1,14.5c0,16.83,15.34,24.5,29.6,24.5c20.89,0,30.4-13.94,30.4-26.9c0-8.11-2.69-19.79-25.98-27.55
		c-0.38-0.13-0.79-0.27-1.22-0.42c-5.38-1.82-13.5-4.56-13.5-10.54c0-5.36,6.22-7.3,10.4-7.3c6.56,0,10.43,3.87,12.99,6.43
		c1.49,1.49,2.57,2.57,3.81,2.57c3.64,0,9-9.81,9-12.9C2485,7.73,2473.85,0,2459.2,0L2459.2,0z M2335.1,0
		c-13,0-27.53,3.46-28.89,6.03c-1.56,2.91-4.32,15.45-4.32,18.77c0,1.44,0,3.42,1.86,3.42c0.09,0,0.19,0,0.29-0.01
		c0.08,0,0.16-0.01,0.25-0.01c0.84,0,1.99-0.8,5.18-3.1c4.37-3.14,11.67-8.4,16.12-8.4c0.42,0,0.72,0.06,0.82,0.17
		c0.25,0.26,0.23,1.3,0.2,2.31c-0.01,0.41-0.02,0.85-0.02,1.32c0,0.98-0.37,2.92-0.88,5.61c-1.32,6.98-3.53,18.65-3.53,34.59
		c0,23.01,2.78,26.19,5.79,26.19c0.4,0,0.77-0.07,1.06-0.12c0.17-0.03,0.35-0.07,0.45-0.07h10.5c0.17,0,0.37,0.01,0.6,0.02
		c0.33,0.01,0.71,0.03,1.11,0.03c3.46,0,4.19-1.49,4.19-2.75c0-0.5-0.19-1.19-0.66-2.84c-1.45-5.11-4.84-17.07-4.84-37.26
		c0-16.07,2.51-27.3,6.1-27.3c4.41,0,7.65,3.55,9.8,5.89c1.37,1.5,2.2,2.41,3.2,2.41c0.43,0,1.58,0,4.32-5.88
		c0.81-1.73,2.68-6.07,2.68-9.02C2366.5,4.02,2350.26,0,2335.1,0L2335.1,0z M2267.3,0c-19.52,0-34.1,29.25-34.1,55.4
		c0,9.42,2.31,17.38,6.69,23c5.06,6.5,12.6,9.8,22.41,9.8h10c9.82,0,17.36-3.3,22.41-9.8c4.37-5.62,6.69-13.58,6.69-23
		C2301.4,29.25,2286.82,0,2267.3,0L2267.3,0z M2267.3,68.4c-10.85,0-15.9-4.83-15.9-15.2c0-9.74,2.07-18.9,5.82-25.81
		c3.03-5.58,6.99-9.19,10.08-9.19s7.05,3.61,10.08,9.19c3.75,6.91,5.82,16.07,5.82,25.81C2283.2,63.57,2278.15,68.4,2267.3,68.4
		L2267.3,68.4z M2121.2,0c-24.68,0-38,25.19-38,48.9c0,24.61,13.35,39.3,35.7,39.3c13.14,0,26.4-6.15,26.4-19.9
		c0-1.57-0.59-8.54-1.41-14.95c-0.47-3.68-0.94-6.64-1.4-8.8c-0.74-3.48-1.37-4.65-2.49-4.65c-1.03,0-7.19,2.24-10.01,3.33
		c-9.39,3.61-9.39,4.41-9.39,5.17c0,1.47,1.3,2.34,2.8,3.35c2.27,1.52,5.1,3.42,5.1,8.05c0,8.19-9.91,8.6-11.9,8.6
		c-10.09,0-15.2-7.2-15.2-21.4c0-11.44,4.28-30.8,20.3-30.8c7.26,0,7.82,3.07,8.32,5.77c0.3,1.62,0.66,3.63,2.98,3.63
		c6.97,0,11.3-3.87,11.3-10.1C2144.3,4.13,2130.49,0,2121.2,0L2121.2,0z M1814.1,0c-2.65,0-11.42,5.24-19.49,15.69
		c-7.12,9.22-15.61,25.03-15.61,48.01c0,11.37,0.89,23,7.5,23h14.3c1.01,0,2.9,0,2.9-1.7c0-0.68-0.45-1.53-1.55-3.57
		c-1.85-3.4-4.95-9.09-4.95-14.33c0-9.92,12.29-12,22.6-12c1.83,0,7.8,0.38,7.8,5.2c0,7.39-3.38,14.26-5.62,18.81
		c-1.25,2.54-2.08,4.23-2.08,5.39c0,1.01,0.63,2.22,3.65,2.22c0.28,0,0.54-0.01,0.77-0.02l0.3-0.01l11.28,0
		c0.22,0,0.46,0.02,0.69,0.03c0.3,0.02,0.6,0.04,0.91,0.04c4.14,0,6.7-4.19,6.7-25.08c0-24.7-7.34-39.92-13.51-48.34
		C1823.87,4.03,1816.4,0,1814.1,0L1814.1,0z M1800.3,42.2c-0.65,0-0.9-0.25-0.9-0.9c0-6.85,10.44-22.2,15.1-22.2
		c2.88,0,10.2,12.13,10.2,18.2c0,1.67-0.35,2.3-4.1,2.3c-6.15,0-12.8,1.26-16.77,2.02C1802.18,41.93,1800.77,42.2,1800.3,42.2
		L1800.3,42.2z M1524.1,0c-13,0-27.53,3.46-28.89,6.03c-1.56,2.91-4.31,15.45-4.31,18.77c0,1.44,0,3.42,1.86,3.42
		c0.09,0,0.19,0,0.29-0.01c0.08,0,0.16-0.01,0.25-0.01c0.84,0,1.99-0.8,5.18-3.1c4.37-3.14,11.67-8.4,16.12-8.4
		c0.42,0,0.72,0.06,0.82,0.17c0.25,0.26,0.23,1.3,0.2,2.31c-0.01,0.41-0.02,0.85-0.02,1.32c0,0.98-0.37,2.92-0.88,5.61
		c-1.32,6.98-3.53,18.65-3.53,34.59c0,23.01,2.78,26.19,5.79,26.19c0.4,0,0.77-0.07,1.06-0.12c0.17-0.03,0.35-0.07,0.45-0.07h10.5
		c0.17,0,0.37,0.01,0.6,0.02c0.33,0.01,0.71,0.03,1.11,0.03c3.46,0,4.19-1.49,4.19-2.75c0-0.5-0.19-1.19-0.66-2.84
		c-1.45-5.11-4.84-17.07-4.84-37.26c0-16.07,2.51-27.3,6.1-27.3c4.41,0,7.65,3.55,9.8,5.89c1.37,1.5,2.2,2.41,3.2,2.41
		c0.43,0,1.58,0,4.32-5.88c0.81-1.73,2.68-6.07,2.68-9.02C1555.5,4.02,1539.26,0,1524.1,0L1524.1,0z M1432.5,0
		c-13,0-27.53,3.46-28.89,6.03c-1.56,2.91-4.31,15.45-4.31,18.77c0,1.44,0,3.42,1.86,3.42c0.09,0,0.19,0,0.29-0.01
		c0.08,0,0.16-0.01,0.25-0.01c0.84,0,1.99-0.8,5.18-3.1c4.37-3.14,11.67-8.4,16.12-8.4c0.42,0,0.72,0.06,0.82,0.17
		c0.25,0.26,0.23,1.3,0.2,2.31c-0.01,0.41-0.02,0.85-0.02,1.32c0,0.98-0.37,2.92-0.88,5.61c-1.32,6.98-3.53,18.65-3.53,34.59
		c0,23.01,2.78,26.19,5.79,26.19c0.4,0,0.77-0.07,1.06-0.12c0.17-0.03,0.35-0.07,0.45-0.07h10.5c0.17,0,0.37,0.01,0.6,0.02
		c0.33,0.01,0.71,0.03,1.11,0.03c3.46,0,4.19-1.49,4.19-2.75c0-0.5-0.19-1.19-0.66-2.84c-1.45-5.11-4.84-17.07-4.84-37.26
		c0-16.07,2.51-27.3,6.1-27.3c4.41,0,7.65,3.55,9.8,5.89c1.37,1.5,2.2,2.41,3.2,2.41c0.43,0,1.58,0,4.32-5.88
		c0.81-1.73,2.68-6.07,2.68-9.02C1463.9,4.02,1447.66,0,1432.5,0L1432.5,0z M1049.5,0c-21.36,0-27,15.5-27,23.7
		c0,9.09,2.97,19.31,25,26.15c4.93,1.53,14.1,4.37,14.1,11.14c0,5.87-6.63,8.5-13.2,8.5c-15.97,0-18.43-11.49-19.61-17
		c-0.44-2.05-0.71-3.3-1.89-3.3c-1.83,0-7.1,5.7-7.1,14.5c0,16.83,15.34,24.5,29.6,24.5c20.89,0,30.4-13.94,30.4-26.9
		c0-8.11-2.69-19.79-25.98-27.55c-0.38-0.13-0.79-0.27-1.22-0.42c-5.38-1.82-13.5-4.56-13.5-10.54c0-5.36,6.22-7.3,10.4-7.3
		c6.56,0,10.43,3.87,12.99,6.43c1.49,1.49,2.57,2.57,3.81,2.57c3.64,0,9-9.81,9-12.9C1075.3,7.73,1064.15,0,1049.5,0L1049.5,0z
		 M981.9,0c-19.52,0-34.1,29.25-34.1,55.4c0,9.42,2.31,17.38,6.69,23c5.06,6.5,12.6,9.8,22.41,9.8h10c9.82,0,17.36-3.3,22.41-9.8
		c4.37-5.63,6.69-13.58,6.69-23C1016,29.25,1001.42,0,981.9,0L981.9,0z M981.9,68.4c-10.85,0-15.9-4.83-15.9-15.2
		c0-9.74,2.07-18.9,5.82-25.81c3.03-5.58,6.99-9.19,10.08-9.19c3.09,0,7.05,3.61,10.08,9.19c3.75,6.91,5.82,16.07,5.82,25.81
		C997.8,63.57,992.75,68.4,981.9,68.4L981.9,68.4z M865.7,0c-11.53,0-21.27,5.18-28.18,14.99c-5.92,8.4-9.32,19.85-9.32,31.41
		c0,10.91,2.96,21.05,8.32,28.56c6.19,8.66,15.18,13.24,25.98,13.24c15.54,0,26.4-10.03,26.4-24.4c0-0.58-0.21-2.88-0.59-5.05
		c-0.63-3.56-1.36-4.95-2.61-4.95c-0.88,0-1.14,0.73-1.61,2.05c-1.35,3.76-4.5,12.55-16.99,12.55c-8,0-20.7-7-20.7-25.8
		c0-12.71,6.2-26.4,19.8-26.4c7.26,0,7.82,3.07,8.32,5.77c0.3,1.62,0.66,3.63,2.98,3.63c6.97,0,11.3-3.87,11.3-10.1
		C888.8,4.13,874.99,0,865.7,0L865.7,0z M639.2,0c-2.65,0-11.42,5.24-19.49,15.69c-7.12,9.22-15.61,25.03-15.61,48.01
		c0,11.37,0.89,23,7.5,23h14.3c1.01,0,2.9,0,2.9-1.7c0-0.68-0.45-1.53-1.55-3.57c-1.85-3.4-4.95-9.09-4.95-14.33
		c0-9.92,12.29-12,22.6-12c1.83,0,7.8,0.38,7.8,5.2c0,7.39-3.38,14.26-5.62,18.81c-1.25,2.54-2.08,4.23-2.08,5.39
		c0,1.01,0.63,2.22,3.65,2.22c0.28,0,0.54-0.01,0.77-0.02l0.3-0.01l11.28,0c0.22,0,0.46,0.02,0.69,0.03c0.3,0.02,0.6,0.04,0.91,0.04
		c4.14,0,6.7-4.19,6.7-25.08c0-24.7-7.34-39.92-13.51-48.34C648.97,4.03,641.5,0,639.2,0L639.2,0z M625.4,42.2
		c-0.65,0-0.9-0.25-0.9-0.9c0-6.85,10.44-22.2,15.1-22.2c2.88,0,10.2,12.13,10.2,18.2c0,1.67-0.35,2.3-4.1,2.3
		c-6.15,0-12.8,1.26-16.77,2.02C627.29,41.93,625.87,42.2,625.4,42.2L625.4,42.2z M540.2,0c-21.36,0-27,15.5-27,23.7
		c0,9.09,2.97,19.31,25,26.15c4.93,1.53,14.1,4.37,14.1,11.14c0,5.87-6.63,8.5-13.2,8.5c-15.97,0-18.43-11.49-19.61-17
		c-0.44-2.05-0.71-3.3-1.89-3.3c-1.83,0-7.1,5.7-7.1,14.5c0,16.83,15.34,24.5,29.6,24.5c20.89,0,30.4-13.94,30.4-26.9
		c0-8.11-2.69-19.79-25.98-27.55c-0.38-0.13-0.79-0.27-1.22-0.42c-5.38-1.82-13.5-4.56-13.5-10.54c0-5.36,6.22-7.3,10.4-7.3
		c6.56,0,10.43,3.87,12.99,6.43c1.49,1.49,2.57,2.57,3.81,2.57c3.64,0,9-9.81,9-12.9C566,7.73,554.85,0,540.2,0L540.2,0z M406.2,0
		c-19.52,0-34.1,29.25-34.1,55.4c0,9.42,2.31,17.38,6.69,23c5.06,6.5,12.6,9.8,22.41,9.8h10c9.82,0,17.36-3.3,22.41-9.8
		c4.37-5.63,6.69-13.58,6.69-23C440.3,29.25,425.72,0,406.2,0L406.2,0z M406.2,68.4c-10.85,0-15.9-4.83-15.9-15.2
		c0-9.74,2.07-18.9,5.82-25.81c3.03-5.58,6.99-9.19,10.08-9.19s7.05,3.61,10.08,9.19c3.75,6.91,5.82,16.07,5.82,25.81
		C422.1,63.57,417.05,68.4,406.2,68.4L406.2,68.4z M335,0c-19.52,0-34.1,29.25-34.1,55.4c0,9.42,2.31,17.38,6.69,23
		c5.06,6.5,12.6,9.8,22.41,9.8h10c9.82,0,17.36-3.3,22.41-9.8c4.37-5.63,6.69-13.58,6.69-23C369.1,29.25,354.52,0,335,0L335,0z
		 M335,68.4c-10.85,0-15.9-4.83-15.9-15.2c0-9.74,2.07-18.9,5.82-25.81c3.03-5.58,6.99-9.19,10.08-9.19s7.05,3.61,10.08,9.19
		c3.75,6.91,5.82,16.07,5.82,25.81C350.9,63.57,345.85,68.4,335,68.4L335,68.4z M34.1,0C14.58,0,0,29.25,0,55.4
		c0,9.42,2.31,17.38,6.69,23c5.06,6.5,12.6,9.8,22.41,9.8h10c9.82,0,17.36-3.3,22.41-9.8c4.37-5.63,6.69-13.58,6.69-23
		C68.2,29.25,53.62,0,34.1,0L34.1,0z M34.1,68.4c-10.85,0-15.9-4.83-15.9-15.2c0-9.74,2.07-18.9,5.82-25.81
		c3.03-5.58,6.99-9.19,10.08-9.19s7.05,3.61,10.08,9.19C47.93,34.3,50,43.46,50,53.2C50,63.57,44.95,68.4,34.1,68.4L34.1,68.4z
		 M1970.67,1.46c-0.28,0-0.55,0.01-0.8,0.03c-0.18,0.01-0.34,0.02-0.48,0.02h-9.6c-2.62,0.11-3.05,0.79-3.68,2.86
		c-0.05,0.17-0.11,0.35-0.17,0.54c-4.7,16.45-18.68,32.38-20.88,33.29c-0.16-0.1-0.75-0.77-0.68-4.87c0-0.17,0.01-0.31,0.01-0.42
		c0-11.86,3.34-23.69,4.77-28.23c0.11-0.35,0.13-0.41,0.13-0.57c0-1.19-0.58-2.62-3.36-2.62c-0.21,0-0.4,0-0.59,0.01l-0.33,0.01
		l-10.21,0l-0.14,0c-0.08,0-0.16-0.01-0.25-0.01c-2.34,0-3.83,2.19-4.98,7.32c-1.68,7.49-2.53,21.38-2.53,41.29
		c0,34.07,2.3,36.62,5.8,36.62c0.13,0,0.26,0,0.39-0.01c0.08,0,0.17-0.01,0.25-0.01l12.26,0c1.76,0,2.9-1.06,2.9-2.7
		c0-0.3-0.15-1.19-0.79-4.87c-0.98-5.63-2.61-15.05-2.61-17.73c0-5.21,8.05-11.92,9.93-12.1c1.77,0.76,9.6,11.07,10.07,32.42
		c0,0.07,0,0.17-0.01,0.28c-0.02,1.03-0.06,2.76,1.01,3.84c0.55,0.56,1.29,0.85,2.2,0.85h12.2c0.33,0,0.67,0.01,0.99,0.03
		c0.33,0.01,0.65,0.03,0.96,0.03c0.83,0,3.36,0,3.36-3.16c0-23.35-12.01-38.32-17.14-44.71c-0.88-1.1-1.79-2.22-2.03-2.69
		c0.29-0.59,1.54-2.14,2.75-3.64c4.97-6.15,14.21-17.6,14.21-28.86C1973.6,2.86,1973.22,1.46,1970.67,1.46L1970.67,1.46z
		 M1580.94,1.47c-0.28,0-0.55,0.01-0.76,0.02c-0.11,0.01-0.21,0.01-0.28,0.01h-13.6c-1.98,0-4.26,2.76-6.2,23.22
		c-1.07,11.28-1.6,23.95-1.6,27.88c0,34.1,2.47,34.1,3.8,34.1h14.7c0.11,0,0.25,0.01,0.41,0.02c0.27,0.02,0.58,0.03,0.9,0.03
		c2.51,0,2.89-1.29,2.89-2.05c0-0.59-0.25-1.42-0.49-1.91c-2.59-6.11-4.01-13.63-4.01-21.19c0-10.64,9.99-15.4,19.9-15.4
		c6.28,0,8.4,2.04,8.4,8.1c0,10.11-3.19,19.88-6.32,28.1c-0.25,0.52-0.38,1.14-0.38,1.8c0,1.66,1.45,2.5,4.31,2.5l0.18,0l14.61,0
		c1.51,0,3.04-1.21,3.8-15.7c0.27-5.11,0.4-11.3,0.4-18.4c0-10.11-1.1-22.53-2.94-33.21c-3.08-17.89-5.85-17.89-6.76-17.89h-13.1
		c-0.06,0-0.16,0-0.27-0.01c-0.23-0.01-0.52-0.02-0.85-0.02c-2.88,0-3.48,1.1-3.48,2.03c0,0.56,0.38,1.35,1.68,3.99
		c2.49,5.04,7.12,14.41,7.12,21.11c0,1.65-0.49,2.23-3.22,2.23c-0.6,0-1.27-0.03-1.98-0.06c-0.83-0.04-1.69-0.07-2.6-0.07
		c-9.42,0-12.49,1.42-14.52,2.36c-0.87,0.4-1.4,0.64-2.18,0.64c-0.56,0-1.4-1.56-1.4-3.9c0-7.67,3.64-17.43,5.6-22.67
		c0.91-2.44,1.2-3.23,1.2-3.73C1583.9,2.68,1583.52,1.47,1580.94,1.47L1580.94,1.47z M2763.78,1.47c-0.83,0-3.38,0-3.38,2.13
		c0,0.68,0.28,2,0.88,4.69c1.48,6.7,4.22,19.18,4.22,32.91c0,0.18,0,0.4,0.01,0.65c0.01,0.73,0.04,2.64-0.12,3.68
		c-0.13-0.21-0.26-0.46-0.33-0.58c-0.07-0.14-0.14-0.26-0.2-0.36C2744.34,6.62,2737.69,1.5,2733.9,1.5h-7.9l-0.14,0
		c-0.08,0-0.16-0.01-0.25-0.01c-2.34,0-3.83,2.19-4.98,7.32c-1.68,7.49-2.53,21.38-2.53,41.29c0,34.07,2.3,36.62,5.8,36.62
		c0.13,0,0.26,0,0.39-0.01c0.08,0,0.17-0.01,0.25-0.01l9.36,0c0.14,0,0.31,0.01,0.48,0.02c0.26,0.02,0.54,0.03,0.82,0.03
		c2.25,0,2.5-1.37,2.5-1.96c0-1.61-0.38-3.64-0.89-6.45c-1.2-6.49-3.21-17.35-3.21-37.05c0-0.27-0.01-0.7-0.03-1.25
		c-0.24-8.3,0.42-10.25,0.87-10.64c0.29,0.08,1.98,0.86,6.52,8.34c2.66,4.39,5.12,9.1,5.83,10.58
		c8.14,16.48,10.34,26.13,11.52,31.32c1.1,4.84,1.61,7.05,5.68,7.05h10.5c0.1,0,0.21,0,0.31,0.01c0.13,0,0.26,0.01,0.39,0.01
		c3.5,0,5.8-2.55,5.8-36.62c0-44.85-3.66-48.61-7.42-48.61c-0.1,0-0.19,0-0.28,0l-0.15,0l-7.65,0c-0.28,0-0.56-0.01-0.85-0.01
		C2764.35,1.48,2764.06,1.47,2763.78,1.47L2763.78,1.47z M2060.48,1.47c-0.84,0-3.38,0-3.38,2.13c0,0.68,0.28,2,0.88,4.69
		c1.48,6.7,4.22,19.18,4.22,32.91c0,0.18,0,0.4,0.01,0.65c0.02,1.74-0.02,2.97-0.13,3.68c-0.13-0.21-0.26-0.46-0.32-0.58
		c-0.07-0.14-0.14-0.26-0.2-0.36C2041.04,6.62,2034.39,1.5,2030.6,1.5h-7.9l-0.14,0c-0.08,0-0.16-0.01-0.25-0.01
		c-2.34,0-3.83,2.19-4.98,7.32c-1.68,7.49-2.53,21.38-2.53,41.29c0,34.07,2.3,36.62,5.8,36.62c0.13,0,0.26,0,0.39-0.01
		c0.08,0,0.17-0.01,0.25-0.01l9.36,0c0.14,0,0.31,0.01,0.48,0.02c0.26,0.02,0.54,0.03,0.82,0.03c2.25,0,2.5-1.37,2.5-1.96
		c0-1.61-0.38-3.64-0.89-6.45c-1.2-6.49-3.21-17.35-3.21-37.05c0-0.27-0.01-0.7-0.03-1.25c-0.24-8.3,0.42-10.25,0.87-10.64
		c0.29,0.08,1.98,0.86,6.52,8.34c2.66,4.39,5.12,9.1,5.83,10.58c8.14,16.48,10.34,26.13,11.52,31.32c1.1,4.84,1.61,7.05,5.68,7.05
		h10.5c0.1,0,0.21,0,0.31,0.01c0.13,0,0.26,0.01,0.39,0.01c3.5,0,5.8-2.55,5.8-36.62c0-44.85-3.66-48.61-7.42-48.61
		c-0.1,0-0.19,0-0.28,0l-0.15,0l-7.65,0c-0.28,0-0.56-0.01-0.85-0.01C2061.05,1.48,2060.76,1.47,2060.48,1.47L2060.48,1.47z
		 M1380.22,1.48C1380.22,1.48,1380.22,1.48,1380.22,1.48C1380.22,1.48,1380.22,1.48,1380.22,1.48c-0.9,0-1.58,0.09-2.13,0.28
		c-1.01,0.35-1.59,1.1-1.59,2.04c0,0.52,0.21,1.21,0.59,2.46c1.29,4.19,4.31,14.01,4.31,34.44c0,27.7-11.14,27.7-14.8,27.7
		c-4.87,0-13.1-6.04-13.1-28.7c0-17.34,2.86-27.56,4.24-32.48c0.48-1.7,0.76-2.73,0.76-3.42c0-2.3-2.24-2.3-3.2-2.3h-13.9
		c-1.58,0-2.93,3.02-4.02,8.97c-0.95,5.18-2.08,14.99-2.08,32.33c0,29.28,11.12,45.4,31.3,45.4c20.84,0,31.4-16.18,31.4-48.1
		c0-33.92-3.32-38.6-6.9-38.6h-9.8c-0.1,0-0.22,0-0.36-0.01C1380.73,1.49,1380.48,1.48,1380.22,1.48L1380.22,1.48L1380.22,1.48z
		 M116.92,1.48C116.92,1.48,116.92,1.48,116.92,1.48C116.92,1.48,116.92,1.48,116.92,1.48c-0.9,0-1.58,0.09-2.13,0.28
		c-1.01,0.35-1.59,1.1-1.59,2.04c0,0.52,0.21,1.21,0.59,2.46c1.29,4.19,4.31,14.01,4.31,34.44c0,27.7-11.14,27.7-14.8,27.7
		c-4.87,0-13.1-6.04-13.1-28.7c0-17.34,2.86-27.56,4.24-32.48c0.48-1.7,0.76-2.73,0.76-3.42c0-2.3-2.24-2.3-3.2-2.3H78.1
		c-1.58,0-2.93,3.02-4.02,8.97C73.13,15.65,72,25.46,72,42.8c0,29.28,11.12,45.4,31.3,45.4c20.84,0,31.4-16.18,31.4-48.1
		c0-33.92-3.32-38.6-6.9-38.6H118c-0.1,0-0.22,0-0.36-0.01C117.43,1.49,117.18,1.48,116.92,1.48L116.92,1.48L116.92,1.48z
		 M2419.49,1.48c-0.22,0-0.44,0.01-0.64,0.01l-0.34,0.01l-10.91,0l-0.14,0c-0.08,0-0.16-0.01-0.25-0.01c-2.34,0-3.83,2.19-4.98,7.32
		c-1.68,7.49-2.53,21.38-2.53,41.29c0,34.07,2.3,36.62,5.8,36.62c0.13,0,0.26,0,0.39-0.01c0.08,0,0.17-0.01,0.25-0.01l14.26,0
		c0.62,0,2.5,0,2.5-2.1c0-0.36-0.13-0.95-0.49-2.6c-1.23-5.54-4.51-20.26-4.51-40.9c0-15.6,3.48-29.45,4.79-34.66
		c0.4-1.61,0.51-2.04,0.51-2.34C2423.2,2.36,2421.95,1.48,2419.49,1.48L2419.49,1.48z M2003.09,1.48c-0.22,0-0.44,0.01-0.64,0.01
		l-0.34,0.01l-10.91,0l-0.14,0c-0.08,0-0.16-0.01-0.25-0.01c-2.34,0-3.83,2.19-4.98,7.32c-1.68,7.49-2.53,21.38-2.53,41.29
		c0,34.07,2.3,36.62,5.8,36.62c0.13,0,0.26,0,0.39-0.01c0.08,0,0.17-0.01,0.25-0.01l14.26,0c0.62,0,2.5,0,2.5-2.1
		c0-0.36-0.13-0.95-0.49-2.6c-1.23-5.54-4.51-20.26-4.51-40.9c0-15.6,3.48-29.45,4.79-34.66c0.4-1.61,0.51-2.04,0.51-2.34
		C2006.8,2.36,2005.55,1.48,2003.09,1.48L2003.09,1.48z M2708.34,1.48c-0.27,0-0.52,0.01-0.74,0.01l-0.31,0.01l-39.5,0
		c-1.09,0-2.91,0-6.28,25.64c-1.81,13.77-3.12,28.47-3.12,34.96c0.12,4.73,0.12,8.53,0.12,11.59c0.01,10,0.01,13.02,4.68,13.02
		c0.14,0,0.28,0,0.43-0.01l45.86,0c0.15,0,0.33,0.01,0.52,0.01c0.25,0.01,0.52,0.02,0.79,0.02c2.8,0,3.39-1.38,3.39-2.54
		c0-0.95-2.48-7.07-3.62-9.72c-3.93-9.18-4.85-9.18-5.58-9.18c-1.07,0-2.28,0.73-4.1,1.82c-3.16,1.9-7.94,4.78-14.3,4.78
		c-7.26,0-11.6-4.79-11.6-12.8c0-9.24,6.88-12.6,11.5-12.6c2.42,0,4.89,0.85,6.52,1.42c1.01,0.35,1.68,0.58,2.18,0.58
		c0.81,0,1.45,0,4.78-8.81c0.03-0.08,3.02-8.08,3.02-8.59c0-2.45-3.6-3.1-5.5-3.1c-5.38,0-10.27,1.87-13.83,3.23
		c-2.05,0.79-3.83,1.47-4.87,1.47c-1.91,0-2.2-2.94-2.2-4.7c0-8.77,6.63-12.7,13.2-12.7c6.62,0,9.97,2.22,11.97,3.55
		c1,0.67,1.73,1.15,2.53,1.15c0.7,0,1.49,0,5.24-7.66c0.03-0.07,3.46-7.11,3.46-8.14C2713,2.4,2711.43,1.48,2708.34,1.48
		L2708.34,1.48z M1679.54,1.48c-0.27,0-0.52,0.01-0.74,0.01l-0.31,0.01l-39.5,0c-1.09,0-2.91,0-6.28,25.64
		c-1.81,13.77-3.12,28.47-3.12,34.96c0.12,4.73,0.12,8.53,0.12,11.59c0.01,10,0.01,13.02,4.68,13.02c0.14,0,0.28,0,0.43-0.01
		l45.86,0c0.15,0,0.33,0.01,0.52,0.01c0.25,0.01,0.52,0.02,0.79,0.02c2.8,0,3.39-1.38,3.39-2.54c0-0.95-2.48-7.07-3.62-9.72
		c-3.93-9.18-4.85-9.18-5.58-9.18c-1.07,0-2.28,0.73-4.1,1.82c-3.16,1.9-7.94,4.78-14.3,4.78c-7.26,0-11.6-4.79-11.6-12.8
		c0-9.24,6.88-12.6,11.5-12.6c2.42,0,4.89,0.85,6.52,1.42c1.01,0.35,1.68,0.58,2.18,0.58c0.81,0,1.44,0,4.78-8.81
		c0.03-0.08,3.02-8.08,3.02-8.59c0-2.45-3.6-3.1-5.5-3.1c-5.38,0-10.27,1.87-13.83,3.23c-2.06,0.79-3.83,1.47-4.87,1.47
		c-1.91,0-2.2-2.94-2.2-4.7c0-8.77,6.63-12.7,13.2-12.7c6.62,0,9.97,2.22,11.97,3.55c1,0.67,1.73,1.15,2.53,1.15
		c0.7,0,1.49,0,5.24-7.66c0.03-0.07,3.46-7.11,3.46-8.14C1684.2,2.4,1682.63,1.48,1679.54,1.48L1679.54,1.48z M1136.04,1.48
		c-0.27,0-0.52,0.01-0.74,0.01L1135,1.5l-39.5,0c-1.09,0-2.91,0-6.28,25.64c-1.81,13.77-3.12,28.47-3.12,34.96
		c0.12,4.73,0.12,8.53,0.12,11.59c0.01,10,0.01,13.02,4.68,13.02c0.14,0,0.28,0,0.43-0.01l45.86,0c0.15,0,0.33,0.01,0.52,0.01
		c0.25,0.01,0.52,0.02,0.79,0.02c2.8,0,3.39-1.38,3.39-2.54c0-0.95-2.48-7.07-3.62-9.72c-3.93-9.18-4.85-9.18-5.58-9.18
		c-1.07,0-2.28,0.73-4.1,1.82c-3.16,1.9-7.94,4.78-14.3,4.78c-7.26,0-11.6-4.79-11.6-12.8c0-9.24,6.88-12.6,11.5-12.6
		c2.42,0,4.89,0.85,6.52,1.42c1.01,0.35,1.68,0.58,2.18,0.58c0.81,0,1.44,0,4.79-8.81c0.03-0.08,3.01-8.08,3.01-8.59
		c0-2.45-3.6-3.1-5.5-3.1c-5.38,0-10.27,1.87-13.83,3.23c-2.06,0.79-3.83,1.47-4.87,1.47c-1.91,0-2.2-2.94-2.2-4.7
		c0-8.77,6.63-12.7,13.2-12.7c6.62,0,9.97,2.22,11.97,3.55c1,0.67,1.73,1.15,2.53,1.15c0.7,0,1.49,0,5.24-7.66
		c0.03-0.07,3.46-7.11,3.46-8.14C1140.7,2.4,1139.13,1.48,1136.04,1.48L1136.04,1.48z M791.94,1.48c-0.27,0-0.52,0.01-0.74,0.01
		L790.9,1.5l-39.5,0c-1.09,0-2.91,0-6.28,25.64C743.31,40.91,742,55.61,742,62.1c0.12,4.73,0.12,8.53,0.12,11.59
		c0.01,10,0.01,13.02,4.68,13.02c0.14,0,0.28,0,0.43-0.01l45.86,0c0.15,0,0.33,0.01,0.52,0.01c0.25,0.01,0.52,0.02,0.79,0.02
		c2.8,0,3.39-1.38,3.39-2.54c0-0.95-2.48-7.07-3.62-9.72c-3.93-9.18-4.85-9.18-5.58-9.18c-1.07,0-2.28,0.73-4.1,1.82
		c-3.16,1.9-7.94,4.78-14.3,4.78c-7.26,0-11.6-4.79-11.6-12.8c0-9.24,6.88-12.6,11.5-12.6c2.42,0,4.89,0.85,6.52,1.42
		c1.01,0.35,1.68,0.58,2.18,0.58c0.81,0,1.44,0,4.78-8.81c0.03-0.08,3.02-8.08,3.02-8.59c0-2.45-3.6-3.1-5.5-3.1
		c-5.38,0-10.27,1.87-13.83,3.23c-2.06,0.79-3.83,1.47-4.87,1.47c-1.91,0-2.2-2.94-2.2-4.7c0-8.77,6.63-12.7,13.2-12.7
		c6.62,0,9.97,2.22,11.97,3.55c1,0.67,1.73,1.15,2.53,1.15c0.7,0,1.49,0,5.24-7.66c0.03-0.07,3.46-7.11,3.46-8.14
		C796.6,2.4,795.03,1.48,791.94,1.48L791.94,1.48z M2603.51,1.49C2603.51,1.49,2603.51,1.49,2603.51,1.49
		c-2.34,0-3.83,2.19-4.98,7.32c-1.68,7.49-2.53,21.38-2.53,41.29c0,34.07,2.3,36.62,5.8,36.62c0.13,0,0.26,0,0.39-0.01l0.25-0.01
		l13.36,0c0.09,0,0.2,0.01,0.33,0.01c0.22,0.01,0.48,0.02,0.76,0.02c2.53,0,2.91-1.21,2.91-1.93c0-0.23-0.06-0.49-0.43-2.02
		c-0.92-3.79-3.07-12.67-3.07-19.18c0-4.54,6.32-8.15,13.64-12.32c11.34-6.46,25.46-14.51,25.46-30.98c0-6.98-4.38-18.8-20.8-18.8
		h-30.7l-0.14,0C2603.68,1.49,2603.6,1.49,2603.51,1.49L2603.51,1.49L2603.51,1.49z M2616.3,42c-1.67,0-2.1-0.74-2.1-3.6
		c-0.05-11.28,1.31-17.92,4.26-20.89c2.04-2.05,4.71-2.21,7.74-2.21c3.31,0,11,0.8,11,8.2C2637.2,29.77,2621.24,42,2616.3,42
		L2616.3,42z M1858.01,1.49C1858.01,1.49,1858.01,1.49,1858.01,1.49c-2.34,0-3.83,2.19-4.98,7.32c-1.68,7.49-2.53,21.38-2.53,41.29
		c0,34.07,2.3,36.62,5.8,36.62c0.13,0,0.26,0,0.39-0.01c0.08,0,0.17-0.01,0.25-0.01l11.66,0c0.15,0,0.33,0.01,0.53,0.03
		c0.31,0.02,0.65,0.04,0.99,0.04c2.59,0,2.97-1.42,2.97-2.27c0-0.26-0.08-0.63-0.53-2.59c-1.03-4.45-3.17-13.7-3.17-19.41
		c0-4.84,6.68-8.7,9.3-8.7c4.79,0,12.8,19.16,12.8,30.6c0,2.32,3.07,2.32,4.23,2.32c0.32,0,0.64-0.01,0.94-0.01
		c0.2,0,0.4-0.01,0.58-0.01l11.45,0c1.64,0,3.5,0,3.5-2.3c0-17.92-10.33-30.11-15.3-35.96c-1.2-1.41-2.55-3.01-2.7-3.54
		c0.16-0.46,1.59-1.57,2.75-2.47c4.58-3.54,12.24-9.46,12.24-21.23c0-5.92-2.37-19.7-24.3-19.7h-26.5l-0.14,0
		C1858.18,1.49,1858.1,1.49,1858.01,1.49L1858.01,1.49L1858.01,1.49z M1870.8,40c-1.45,0-2.1-1.57-2.1-5.1
		c-0.05-9.27,1.07-14.55,3.66-17.15c1.71-1.72,4.2-2.45,8.34-2.45c4.98,0,10.3,2,10.3,7.6C1891,31.58,1873.58,40,1870.8,40
		L1870.8,40z M1725.81,1.49C1725.81,1.49,1725.81,1.49,1725.81,1.49c-2.34,0-3.83,2.19-4.98,7.32c-1.68,7.49-2.53,21.38-2.53,41.29
		c0,34.07,2.3,36.62,5.8,36.62c0.13,0,0.26,0,0.39-0.01l0.25-0.01l13.36,0c0.09,0,0.2,0.01,0.33,0.01c0.22,0.01,0.48,0.02,0.76,0.02
		c2.53,0,2.91-1.21,2.91-1.93c0-0.23-0.06-0.49-0.43-2.02c-0.92-3.79-3.07-12.67-3.07-19.18c0-4.54,6.32-8.15,13.64-12.32
		c11.34-6.46,25.46-14.51,25.46-30.98c0-6.98-4.38-18.8-20.8-18.8h-30.7l-0.14,0C1725.98,1.49,1725.9,1.49,1725.81,1.49
		L1725.81,1.49L1725.81,1.49z M1738.6,42c-1.67,0-2.1-0.74-2.1-3.6c-0.05-11.28,1.31-17.92,4.26-20.89
		c2.04-2.05,4.71-2.21,7.74-2.21c3.31,0,11,0.8,11,8.2C1759.5,29.77,1743.54,42,1738.6,42L1738.6,42z M1278.31,1.49
		c-2.34,0-3.83,2.19-4.98,7.32c-1.68,7.49-2.53,21.38-2.53,41.29c0,34.07,2.3,36.62,5.8,36.62c0.13,0,0.26,0,0.39-0.01
		c0.08,0,0.17-0.01,0.25-0.01l30.16,0c7.88,0,13.94-2.11,18.01-6.28c3.46-3.53,5.29-8.38,5.29-14.02c0-12.27-7.95-20.1-12.7-24.78
		c-1.59-1.57-3.4-3.35-3.4-4.02c0-0.68,1.54-2.33,2.89-3.79c3.39-3.64,8.51-9.13,8.51-16.71c0-10.35-7.2-15.6-21.4-15.6h-25.9
		l-0.14,0C1278.48,1.49,1278.4,1.49,1278.31,1.49L1278.31,1.49z M1289,37.8c-0.77,0-1.02-0.25-1.1-0.33
		c-0.52-0.52-0.51-1.83-0.5-2.88l0-0.38c0-15.89,4.71-18.9,13.4-18.9c4.64,0,7,1.68,7,5c0,3.72-3.99,8.34-6.69,10.29l-7.29,5.2
		C1292.25,36.87,1289.85,37.8,1289,37.8L1289,37.8z M1299,71.9c-7.03,0-11-0.75-11-16.1c0-2.45,0.86-2.93,3.18-4.19l0.61-0.33
		l6.49-3.49l0.43-0.24c0.96-0.53,2.41-1.34,3.3-1.34c1.78,0,10.5,9.3,10.5,16.1C1312.5,71.21,1302.17,71.9,1299,71.9L1299,71.9z
		 M1153.31,1.49c-2.34,0-3.83,2.19-4.98,7.32c-1.68,7.49-2.53,21.38-2.53,41.29c0,34.07,2.3,36.62,5.8,36.62
		c0.13,0,0.26,0,0.39-0.01c0.08,0,0.17-0.01,0.25-0.01l25.96,0c9.82,0,17.36-3.3,22.41-9.8c4.37-5.63,6.69-13.58,6.69-23
		c0-21.15-7.23-33.66-13.29-40.43c-7.91-8.83-17.22-11.97-23.31-11.97h-17l-0.14,0C1153.48,1.49,1153.4,1.49,1153.31,1.49
		L1153.31,1.49z M1174.6,71.9c-3.35,0-11.2,0-11.2-24.1V33.5c0-6.76,1.56-18.2,7.4-18.2c2.83,0,7.41,2.49,11.27,8.06
		c3.21,4.63,7.03,12.97,7.03,26.44C1189.1,66.01,1180.43,71.9,1174.6,71.9L1174.6,71.9z M683.11,1.49
		C683.11,1.49,683.11,1.49,683.11,1.49c-2.34,0-3.83,2.19-4.98,7.32c-1.68,7.49-2.53,21.38-2.53,41.29c0,34.07,2.3,36.62,5.8,36.62
		c0.13,0,0.26,0,0.39-0.01c0.08,0,0.17-0.01,0.25-0.01l11.66,0c0.15,0,0.33,0.01,0.53,0.03c0.31,0.02,0.65,0.04,0.99,0.04
		c2.59,0,2.98-1.42,2.98-2.27c0-0.26-0.08-0.63-0.53-2.59c-1.03-4.45-3.17-13.7-3.17-19.41c0-4.84,6.68-8.7,9.3-8.7
		c4.79,0,12.8,19.16,12.8,30.6c0,2.32,3.07,2.32,4.23,2.32c0.32,0,0.64-0.01,0.94-0.01c0.2,0,0.4-0.01,0.58-0.01l11.45,0
		c1.64,0,3.5,0,3.5-2.3c0-17.92-10.33-30.11-15.3-35.96c-1.2-1.41-2.55-3.01-2.7-3.54c0.16-0.46,1.59-1.57,2.75-2.47
		c4.58-3.54,12.24-9.46,12.24-21.23c0-5.92-2.37-19.7-24.3-19.7h-26.5l-0.14,0C683.28,1.49,683.2,1.49,683.11,1.49L683.11,1.49
		L683.11,1.49z M695.9,40c-1.45,0-2.1-1.57-2.1-5.1c-0.05-9.27,1.07-14.55,3.66-17.15c1.71-1.72,4.2-2.45,8.34-2.45
		c4.98,0,10.3,2,10.3,7.6C716.1,31.58,698.68,40,695.9,40L695.9,40z M453.31,1.49C453.31,1.49,453.31,1.49,453.31,1.49
		c-2.34,0-3.83,2.19-4.98,7.32c-1.68,7.49-2.53,21.38-2.53,41.29c0,34.07,2.3,36.62,5.8,36.62c0.13,0,0.26,0,0.39-0.01
		c0.08,0,0.17-0.01,0.25-0.01l11.66,0c0.15,0,0.33,0.01,0.53,0.03c0.31,0.02,0.65,0.04,0.99,0.04c2.59,0,2.97-1.42,2.97-2.27
		c0-0.26-0.08-0.63-0.53-2.59c-1.03-4.45-3.17-13.7-3.17-19.41c0-4.84,6.68-8.7,9.3-8.7c4.79,0,12.8,19.16,12.8,30.6
		c0,2.32,3.07,2.32,4.23,2.32c0.32,0,0.64-0.01,0.94-0.01c0.2,0,0.4-0.01,0.58-0.01l11.45,0c1.64,0,3.5,0,3.5-2.3
		c0-17.92-10.33-30.11-15.3-35.96c-1.2-1.41-2.55-3.01-2.7-3.54c0.16-0.46,1.59-1.57,2.75-2.47c4.58-3.54,12.24-9.46,12.24-21.23
		c0-5.92-2.37-19.7-24.3-19.7h-26.5l-0.14,0C453.48,1.49,453.4,1.49,453.31,1.49L453.31,1.49L453.31,1.49z M466.1,40
		c-1.45,0-2.1-1.57-2.1-5.1c-0.05-9.27,1.07-14.55,3.66-17.15c1.71-1.72,4.2-2.45,8.34-2.45c4.98,0,10.3,2,10.3,7.6
		C486.3,31.58,468.88,40,466.1,40L466.1,40z M243.91,1.49c-2.34,0-3.83,2.19-4.98,7.32c-1.68,7.49-2.53,21.38-2.53,41.29
		c0,34.07,2.3,36.62,5.8,36.62c0.13,0,0.26,0,0.39-0.01c0.08,0,0.17-0.01,0.25-0.01l25.96,0c9.82,0,17.36-3.3,22.41-9.8
		c4.37-5.63,6.69-13.58,6.69-23c0-21.15-7.23-33.66-13.29-40.43C276.7,4.64,267.38,1.5,261.3,1.5h-17l-0.14,0
		C244.08,1.49,244,1.49,243.91,1.49L243.91,1.49z M265.2,71.9c-3.35,0-11.2,0-11.2-24.1V33.5c0-6.76,1.56-18.2,7.4-18.2
		c2.83,0,7.41,2.49,11.27,8.06c3.21,4.63,7.03,12.97,7.03,26.44C279.7,66.01,271.03,71.9,265.2,71.9L265.2,71.9z M148.51,1.49
		C148.51,1.49,148.51,1.49,148.51,1.49c-2.34,0-3.83,2.19-4.98,7.32C141.85,16.3,141,30.19,141,50.1c0,34.07,2.3,36.62,5.8,36.62
		c0.13,0,0.26,0,0.39-0.01c0.08,0,0.17-0.01,0.25-0.01l11.66,0c0.15,0,0.33,0.01,0.53,0.03c0.31,0.02,0.65,0.04,0.99,0.04
		c2.59,0,2.98-1.42,2.98-2.27c0-0.26-0.08-0.63-0.53-2.59c-1.03-4.45-3.17-13.7-3.17-19.41c0-4.84,6.68-8.7,9.3-8.7
		c4.79,0,12.8,19.16,12.8,30.6c0,2.32,3.07,2.32,4.23,2.32c0.32,0,0.64-0.01,0.94-0.01c0.2,0,0.4-0.01,0.58-0.01l11.45,0
		c1.64,0,3.5,0,3.5-2.3c0-17.92-10.33-30.11-15.3-35.96c-1.2-1.41-2.55-3.01-2.7-3.54c0.16-0.46,1.59-1.57,2.75-2.47
		c4.58-3.54,12.24-9.46,12.24-21.23c0-5.92-2.37-19.7-24.3-19.7h-26.5l-0.14,0C148.68,1.49,148.6,1.49,148.51,1.49L148.51,1.49
		L148.51,1.49z M161.3,40c-1.45,0-2.1-1.57-2.1-5.1c-0.05-9.27,1.07-14.55,3.66-17.15c1.71-1.72,4.2-2.45,8.34-2.45
		c4.98,0,10.3,2,10.3,7.6C181.5,31.58,164.08,40,161.3,40L161.3,40z M2205.9,1.5H2190c-1.09,0-2.91,0-6.28,25.64
		c-1.81,13.77-3.12,28.47-3.12,34.96c0.12,4.73,0.12,8.53,0.12,11.59c0.01,10,0.01,13.02,4.68,13.02c0.14,0,0.28,0,0.43-0.01
		l40.66,0c0.16,0,0.36,0.01,0.59,0.02c0.32,0.02,0.69,0.03,1.06,0.03c3.02,0,3.65-1.39,3.65-2.56c0-0.49-1.14-5.99-2.22-10.33
		c-2.6-10.47-3.7-10.47-4.58-10.47c-1.21,0-2.45,1.01-4.31,2.54c-3.08,2.52-7.29,5.96-12.99,5.96c-6.87,0-10.5-5.57-10.5-16.1
		c0-21.33,7.07-39.19,10.09-46.81c1.12-2.83,1.51-3.84,1.51-4.49C2208.8,2.62,2207.72,1.5,2205.9,1.5L2205.9,1.5z M920.5,1.5h-15.9
		c-1.09,0-2.91,0-6.28,25.64c-1.81,13.77-3.12,28.47-3.12,34.96c0.12,4.73,0.12,8.53,0.12,11.59c0.01,10,0.01,13.02,4.68,13.02
		c0.14,0,0.28,0,0.43-0.01l40.66,0c0.16,0,0.36,0.01,0.59,0.02c0.32,0.02,0.69,0.03,1.06,0.03c3.02,0,3.65-1.39,3.65-2.56
		c0-0.49-1.14-5.99-2.22-10.33c-2.6-10.47-3.7-10.47-4.58-10.47c-1.21,0-2.45,1.01-4.31,2.54c-3.08,2.52-7.29,5.96-12.98,5.96
		c-6.87,0-10.5-5.57-10.5-16.1c0-21.33,7.07-39.19,10.09-46.81c1.12-2.83,1.51-3.84,1.51-4.49C923.4,2.62,922.32,1.5,920.5,1.5
		L920.5,1.5z M2799.3,64.2c-6.62,0-12,5.34-12,11.9c0,6.67,5.43,12.1,12.1,12.1c6.78,0,12.3-5.38,12.3-12
		C2811.7,69.47,2806.25,64.2,2799.3,64.2L2799.3,64.2z M1223.1,64.2c-6.62,0-12,5.34-12,11.9c0,6.67,5.43,12.1,12.1,12.1
		c6.78,0,12.3-5.38,12.3-12C1235.5,69.47,1230.05,64.2,1223.1,64.2L1223.1,64.2z"/>
</g>
</svg>
