<?xml version="1.0" encoding="UTF-8"?>
<svg width="332px" height="7px" viewBox="0 0 332 7" version="1.1" xmlns="http://www.w3.org/2000/svg" xmlns:xlink="http://www.w3.org/1999/xlink">
    <title>Artboard Copy 26</title>
    <g id="Artboard-Copy-26" stroke="none" stroke-width="1" fill="none" fill-rule="evenodd">
        <path d="M82.9327354,0 C82.9557827,0 82.9787455,6.56613036e-05 83.0016246,0.000196365836 L82.9999886,3.501 L82.9327354,3.5 C80.9390135,3.5 80.0501457,3.9738125 78.9166317,4.77139687 L78.735426,4.9 C77.5112108,5.95 75.7623318,7 72.6143498,7 C69.4663677,7 67.8923767,5.775 66.4932735,4.9 C65.2690583,4.2 64.3946188,3.5 62.2959641,3.5 C60.1973094,3.5 59.32287,4.025 58.0986547,4.9 C56.8744395,5.95 55.1255605,7 51.9775785,7 C48.8295964,7 47.2556054,5.775 45.8565022,4.9 C44.632287,4.2 43.7578475,3.5 41.6591928,3.5 C39.5605381,3.5 38.6860987,4.025 37.4618834,4.9 C36.2376682,5.95 34.4887892,7 31.3408072,7 C28.1928251,7 26.6188341,5.775 25.2197309,4.9 C23.9955157,4.2 23.1210762,3.5 21.0224215,3.5 C18.9237668,3.5 18.0493274,4.025 16.8251121,4.9 C15.6008969,5.95 13.8520179,7 10.7040359,7 C7.55605381,7 5.98206278,5.775 4.58295964,4.9 C3.35874439,4.2 2.48430493,3.5 0.385650224,3.5 C0.251833565,3.5 0.122994233,3.50213451 -0.00127581893,3.50635815 L-0.000116265795,0.00537846767 C0.126092066,0.0018180393 0.254659895,0 0.385650224,0 C3.53363229,0 5.10762332,1.225 6.50672646,2.1 C7.7309417,2.8 8.60538117,3.5 10.7040359,3.5 C12.8026906,3.5 13.67713,2.975 14.9013453,2.1 C16.1255605,1.05 17.8744395,0 21.0224215,0 C24.1704036,0 25.7443946,1.225 27.1434978,2.1 C28.367713,2.8 29.2421525,3.5 31.3408072,3.5 C33.4394619,3.5 34.3139013,2.975 35.5381166,2.1 C36.7623318,1.05 38.5112108,0 41.6591928,0 C44.8071749,0 46.3811659,1.225 47.7802691,2.1 C49.0044843,2.8 49.8789238,3.5 51.9775785,3.5 C54.0762332,3.5 54.9506726,2.975 56.1748879,2.1 C57.3991031,1.05 59.1479821,0 62.2959641,0 C65.4439462,0 67.0179372,1.225 68.4170404,2.1 C69.6412556,2.8 70.5156951,3.5 72.6143498,3.5 C74.7130045,3.5 75.5874439,2.975 76.8116592,2.1 C78.0358744,1.05 79.7847534,0 82.9327354,0 Z" id="Combined-Shape" fill="#000000" fill-rule="nonzero"></path>
        <path d="M248.934747,0 C248.957794,0 248.980757,6.56613036e-05 249.003636,0.000196365836 L249.002,3.501 L248.934747,3.5 C246.941025,3.5 246.052157,3.9738125 244.918643,4.77139687 L244.737437,4.9 C243.513222,5.95 241.764343,7 238.616361,7 C235.468379,7 233.894388,5.775 232.495285,4.9 C231.27107,4.2 230.39663,3.5 228.297976,3.5 C226.199321,3.5 225.324881,4.025 224.100666,4.9 C222.876451,5.95 221.127572,7 217.97959,7 C214.831608,7 213.257617,5.775 211.858514,4.9 C210.634298,4.2 209.759859,3.5 207.661204,3.5 C205.56255,3.5 204.68811,4.025 203.463895,4.9 C202.23968,5.95 200.490801,7 197.342819,7 C194.194837,7 192.620846,5.775 191.221742,4.9 C189.997527,4.2 189.123088,3.5 187.024433,3.5 C184.925778,3.5 184.051339,4.025 182.827124,4.9 C181.602908,5.95 179.854029,7 176.706047,7 C173.558065,7 171.984074,5.775 170.584971,4.9 C169.360756,4.2 168.486316,3.5 166.387662,3.5 C166.253845,3.5 166.125006,3.50213451 166.000736,3.50635815 L166.001895,0.00537846767 C166.128103,0.0018180393 166.256671,0 166.387662,0 C169.535644,0 171.109635,1.225 172.508738,2.1 C173.732953,2.8 174.607393,3.5 176.706047,3.5 C178.804702,3.5 179.679141,2.975 180.903357,2.1 C182.127572,1.05 183.876451,0 187.024433,0 C190.172415,0 191.746406,1.225 193.145509,2.1 C194.369724,2.8 195.244164,3.5 197.342819,3.5 C199.441473,3.5 200.315913,2.975 201.540128,2.1 C202.764343,1.05 204.513222,0 207.661204,0 C210.809186,0 212.383177,1.225 213.78228,2.1 C215.006496,2.8 215.880935,3.5 217.97959,3.5 C220.078245,3.5 220.952684,2.975 222.176899,2.1 C223.401115,1.05 225.149993,0 228.297976,0 C231.445958,0 233.019949,1.225 234.419052,2.1 C235.643267,2.8 236.517706,3.5 238.616361,3.5 C240.715016,3.5 241.589455,2.975 242.813671,2.1 C244.037886,1.05 245.786765,0 248.934747,0 Z" id="Combined-Shape-Copy-2" fill="#000000" fill-rule="nonzero"></path>
        <path d="M165.934747,0 C165.957794,0 165.980757,6.56613036e-05 166.003636,0.000196365836 L166.002,3.501 L165.934747,3.5 C163.941025,3.5 163.052157,3.9738125 161.918643,4.77139687 L161.737437,4.9 C160.513222,5.95 158.764343,7 155.616361,7 C152.468379,7 150.894388,5.775 149.495285,4.9 C148.27107,4.2 147.39663,3.5 145.297976,3.5 C143.199321,3.5 142.324881,4.025 141.100666,4.9 C139.876451,5.95 138.127572,7 134.97959,7 C131.831608,7 130.257617,5.775 128.858514,4.9 C127.634298,4.2 126.759859,3.5 124.661204,3.5 C122.56255,3.5 121.68811,4.025 120.463895,4.9 C119.23968,5.95 117.490801,7 114.342819,7 C111.194837,7 109.620846,5.775 108.221742,4.9 C106.997527,4.2 106.123088,3.5 104.024433,3.5 C101.925778,3.5 101.051339,4.025 99.8271235,4.9 C98.6029083,5.95 96.8540294,7 93.7060473,7 C90.5580652,7 88.9840742,5.775 87.5849711,4.9 C86.3607558,4.2 85.4863164,3.5 83.3876617,3.5 C83.253845,3.5 83.1250057,3.50213451 83.0007356,3.50635815 L83.0018952,0.00537846767 C83.1281035,0.0018180393 83.2566713,0 83.3876617,0 C86.5356437,0 88.1096347,1.225 89.5087379,2.1 C90.7329531,2.8 91.6073926,3.5 93.7060473,3.5 C95.804702,3.5 96.6791415,2.975 97.9033567,2.1 C99.127572,1.05 100.876451,0 104.024433,0 C107.172415,0 108.746406,1.225 110.145509,2.1 C111.369724,2.8 112.244164,3.5 114.342819,3.5 C116.441473,3.5 117.315913,2.975 118.540128,2.1 C119.764343,1.05 121.513222,0 124.661204,0 C127.809186,0 129.383177,1.225 130.78228,2.1 C132.006496,2.8 132.880935,3.5 134.97959,3.5 C137.078245,3.5 137.952684,2.975 139.176899,2.1 C140.401115,1.05 142.149993,0 145.297976,0 C148.445958,0 150.019949,1.225 151.419052,2.1 C152.643267,2.8 153.517706,3.5 155.616361,3.5 C157.715016,3.5 158.589455,2.975 159.813671,2.1 C161.037886,1.05 162.786765,0 165.934747,0 Z" id="Combined-Shape-Copy" fill="#000000" fill-rule="nonzero"></path>
        <path d="M331.936758,0 C331.959806,0 331.982768,6.56613036e-05 332.005647,0.000196365836 L332.004011,3.501 L331.936758,3.5 C329.943036,3.5 329.054169,3.9738125 327.920655,4.77139687 L327.739449,4.9 C326.515234,5.95 324.766355,7 321.618373,7 C318.470391,7 316.8964,5.775 315.497296,4.9 C314.273081,4.2 313.398642,3.5 311.299987,3.5 C309.201332,3.5 308.326893,4.025 307.102678,4.9 C305.878462,5.95 304.129583,7 300.981601,7 C297.833619,7 296.259628,5.775 294.860525,4.9 C293.63631,4.2 292.76187,3.5 290.663216,3.5 C288.564561,3.5 287.690122,4.025 286.465906,4.9 C285.241691,5.95 283.492812,7 280.34483,7 C277.196848,7 275.622857,5.775 274.223754,4.9 C272.999539,4.2 272.125099,3.5 270.026444,3.5 C267.92779,3.5 267.05335,4.025 265.829135,4.9 C264.60492,5.95 262.856041,7 259.708059,7 C256.560077,7 254.986086,5.775 253.586982,4.9 C252.362767,4.2 251.488328,3.5 249.389673,3.5 C249.255856,3.5 249.127017,3.50213451 249.002747,3.50635815 L249.003907,0.00537846767 C249.130115,0.0018180393 249.258683,0 249.389673,0 C252.537655,0 254.111646,1.225 255.510749,2.1 C256.734965,2.8 257.609404,3.5 259.708059,3.5 C261.806713,3.5 262.681153,2.975 263.905368,2.1 C265.129583,1.05 266.878462,0 270.026444,0 C273.174426,0 274.748417,1.225 276.147521,2.1 C277.371736,2.8 278.246175,3.5 280.34483,3.5 C282.443485,3.5 283.317924,2.975 284.542139,2.1 C285.766355,1.05 287.515234,0 290.663216,0 C293.811198,0 295.385189,1.225 296.784292,2.1 C298.008507,2.8 298.882947,3.5 300.981601,3.5 C303.080256,3.5 303.954695,2.975 305.178911,2.1 C306.403126,1.05 308.152005,0 311.299987,0 C314.447969,0 316.02196,1.225 317.421063,2.1 C318.645278,2.8 319.519718,3.5 321.618373,3.5 C323.717027,3.5 324.591467,2.975 325.815682,2.1 C327.039897,1.05 328.788776,0 331.936758,0 Z" id="Combined-Shape-Copy-3" fill="#000000" fill-rule="nonzero"></path>
    </g>
</svg>