<svg version="1.1" id="Layer_1" xmlns="http://www.w3.org/2000/svg" x="0" y="0" viewBox="0 0 579.25 46.1" xml:space="preserve"><style>.st0{fill:#fff}</style><path class="st0" d="M4.25 43.85c-1.25 0-2.75.95-2.75-17.8 0-24.7 2.6-23.8 3.45-23.8h8.5c6.35 0 17.8 6.95 17.8 25.7 0 8.65-3.95 15.9-14.05 15.9H4.25zM9.3 24.9c0 11.25 3.3 12.55 6.1 12.55 2.7 0 7.75-2.55 7.75-11.55 0-12.35-6.4-17.75-9.65-17.75-3.5 0-4.2 6.45-4.2 9.6v7.15z"/><path class="st0" d="M3.91 45.36c-.46 0-1.17-.08-1.81-.7C.99 43.59 0 41.37 0 26.05 0 6.8 1.56 2.81 2.93 1.49 3.74.71 4.59.73 4.91.75h8.54c6.3 0 19.3 6.65 19.3 27.2 0 10.9-5.81 17.4-15.55 17.4H4.13c-.07.01-.14.01-.22.01zM4.93 3.75C4.45 4.4 3 7.88 3 26.05c0 12.38.7 15.52 1.09 16.3H17.2c10.92 0 12.55-9.02 12.55-14.4 0-18.29-10.98-24.2-16.3-24.2H4.93zm10.47 35.2c-5.26 0-7.6-4.33-7.6-14.05v-7.15c0-5.37 1.5-11.1 5.7-11.1 3.89 0 11.15 5.65 11.15 19.25 0 9.58-5.53 13.05-9.25 13.05zm-1.9-29.3c-1.69 0-2.7 4.12-2.7 8.1v7.15c0 11.05 3.22 11.05 4.6 11.05 1.74 0 6.25-1.81 6.25-10.05 0-11.57-5.75-16.25-8.15-16.25zM40.85 43.85c-1.25 0-2.75.95-2.75-17.8 0-24.7 2.6-23.8 3.45-23.8h5.4c.65 0 1.9-.15 1.9.8 0 .5-2.65 8.85-2.65 18.5 0 12.8 2.5 21.05 2.5 21.75 0 .5-.3.55-.75.55h-7.1z"/><path class="st0" d="M40.51 45.36c-.46 0-1.17-.08-1.81-.7-1.1-1.07-2.09-3.29-2.09-18.61 0-19.26 1.56-23.24 2.93-24.56.81-.78 1.66-.76 1.98-.74H47.16c.66-.01 1.77-.04 2.55.71.42.41.65.97.65 1.59 0 .28-.06.52-.29 1.41-.65 2.58-2.37 9.41-2.37 17.09 0 10.21 1.62 17.49 2.23 20.23.2.91.27 1.22.27 1.52 0 .34-.11 2.05-2.25 2.05h-7.22c-.06.01-.14.01-.22.01zm1.02-41.61c-.47.65-1.93 4.13-1.93 22.3 0 12.38.7 15.52 1.09 16.3h6.29c-.64-2.89-2.28-10.36-2.28-20.8 0-8.03 1.78-15.12 2.45-17.8h-5.62zM77.85 43.85c-.45 0-1.9.15-1.9-.6 0-1.4 3.85-6.4 3.85-12.1 0-2.25-2.15-3.1-4.4-3.1-4.55 0-11.8.8-11.8 6.5 0 3.95 3.25 8.2 3.25 8.95 0 .3-.3.35-.95.35h-7.15c-2.55 0-3.25-4.5-3.25-11 0-21.4 14.85-31.35 17.05-31.35 1.65 0 14.55 7.15 14.55 30.35 0 13.35-2.15 12-3.65 12h-5.6zM64.7 21.65c0 .6.35.95.95.95.9 0 5.75-1.3 10.15-1.3 1.75 0 2.55-.25 2.55-1.65 0-3.1-3.7-9.6-5.6-9.6-2.7 0-8.05 7.95-8.05 11.6z"/><path class="st0" d="M84.24 45.39c-.19 0-.37-.01-.51-.02-.09-.01-.19-.01-.27-.01H77.7c-.7.02-1.87.06-2.65-.69-.38-.37-.6-.87-.6-1.41 0-.81.43-1.69 1.14-3.13 1.08-2.19 2.71-5.5 2.71-8.97 0-1.44-2.03-1.6-2.9-1.6-4.7 0-10.3.87-10.3 5 0 2.37 1.47 5.07 2.35 6.69.6 1.1.9 1.65.9 2.26 0 .69-.32 1.85-2.45 1.85h-7.15c-4.17 0-4.75-6.01-4.75-12.5C54 10.95 69.01 0 72.55 0 75.38 0 88.6 8.3 88.6 31.85c0 9.38-1.06 11.66-2.21 12.73-.73.69-1.54.81-2.15.81zm-6.39-3.04h5.6c.16 0 .32.01.49.02.14.01.36.03.43.01.1-.08 1.24-1.16 1.24-10.53 0-21.26-11.16-28.38-13.09-28.84C70.16 3.49 57 13.21 57 32.85c0 9.23 1.57 9.5 1.75 9.5h5.89c-1.02-1.89-2.54-4.84-2.54-7.8 0-2.99 1.73-8 13.3-8 3.58 0 5.9 1.81 5.9 4.6 0 4.16-1.81 7.85-3.02 10.29-.14.29-.3.62-.43.91zM65.65 24.1c-1.42 0-2.45-1.03-2.45-2.45 0-4 5.55-13.1 9.55-13.1 3.31 0 7.1 7.88 7.1 11.1 0 3.15-2.94 3.15-4.05 3.15-2.89 0-6.1.61-8.01.97-1.19.23-1.74.33-2.14.33zm-.95-2.45h1.5-1.5zm7.98-10.09c-1.52.28-5.88 6.07-6.42 9.45.29-.05.64-.12.97-.18 2.02-.38 5.4-1.03 8.57-1.03.58 0 .89-.03 1.05-.07v-.08c0-2.49-2.94-7.49-4.17-8.09zm-.07-.03zM95.85 43.85c-2.65.1-1.85-1.65-2.1-11.8 0-6.7 2.75-29.8 4.2-29.8h7.95c.35 0 .95.1.95 1 0 1.1-5.8 11.85-5.8 25.65 0 6.9 3 8.55 5.75 8.55 4.6 0 7.4-4.25 8.65-4.25.95 0 2.9 9.65 2.9 9.9 0 1-1.55.75-2.15.75H95.85z"/><path class="st0" d="M117.02 45.38c-.21 0-.41-.01-.57-.02-.09 0-.18-.01-.24-.01H95.88c-.7.03-1.69-.04-2.45-.77-1.11-1.07-1.11-2.73-1.11-6.74 0-1.52 0-3.42-.06-5.76 0-3.32.66-10.73 1.57-17.65C95.63.74 96.61.74 97.96.74h7.95c1.47 0 2.45 1 2.45 2.5 0 .53-.22 1.1-.83 2.61-1.49 3.76-4.98 12.56-4.98 23.04 0 4.68 1.43 7.05 4.25 7.05 2.49 0 4.44-1.59 5.86-2.76 1.06-.87 1.83-1.49 2.79-1.49 1.41 0 2.08 1.23 3.26 6 .4 1.61 1.14 4.92 1.14 5.41 0 .61-.23 1.17-.66 1.58-.63.6-1.48.7-2.17.7zm-21.2-3.03h20.38c.11 0 .24.01.39.01h.1c-.36-1.79-1.18-5.35-1.79-7.13-.12.1-.24.19-.35.28-1.67 1.37-4.2 3.43-7.76 3.43-2.18 0-7.25-.98-7.25-10.05 0-11.05 3.63-20.23 5.19-24.14.14-.35.28-.71.4-1.01h-6.38c-1.22 3.61-3.51 21.73-3.51 28.3.06 2.34.06 4.25.06 5.79 0 2 0 3.89.19 4.51.07 0 .16.01.29 0l.04.01zM149.4 13.05c0-4.3-4.1-4.05-4.1-5.75 0-1.2 3.95-4.75 9.2-4.75 1.05 0 3.05.6 3.05 2 0 .95-1.4 7.05-1.4 15.05 0 6.8 1.65 14.9 1.65 23.65 0 .85-4.9 1.35-7.5 1.35-.9 0-1.45.3-1.45-12.05 0-7.55.55-13.75.55-19.5z"/><path class="st0" d="M150.22 46.1c-.38 0-1.03-.04-1.6-.6-.9-.9-1.27-2.32-1.27-12.96 0-4.06.15-7.66.3-11.14.13-2.94.25-5.71.25-8.36 0-1.79-.89-2.32-2.01-2.99-.88-.53-2.09-1.25-2.09-2.76 0-2.35 5-6.25 10.7-6.25 1.83 0 4.55 1.11 4.55 3.5 0 .35-.07.81-.25 1.92-.4 2.55-1.15 7.29-1.15 13.13 0 3.11.36 6.55.74 10.19.45 4.29.91 8.73.91 13.46 0 1.89-3.03 2.85-9 2.85-.03.01-.05.01-.08.01zm-3.24-38.89c.14.09.31.19.46.28 1.3.78 3.47 2.08 3.47 5.57 0 2.71-.12 5.52-.25 8.49-.15 3.45-.3 7.01-.3 11.01 0 5.71.13 9.25.38 10.55 2.11-.04 4.5-.34 5.56-.63-.05-4.29-.48-8.39-.89-12.37-.39-3.72-.76-7.24-.76-10.5 0-6.07.77-10.96 1.19-13.6.1-.64.2-1.29.21-1.46-.11-.15-.91-.49-1.55-.49-3.86-.01-6.72 2.15-7.52 3.15zm-.21.32zM172.1 31.3c-.8 0-2.3.25-2.3-.9 0-.5.85-5.5 2.8-5.5h7.4c.8 0 2.3-.25 2.3.9 0 .5-.85 5.5-2.8 5.5h-7.4z"/><path class="st0" d="M171.24 32.82c-.72 0-1.6-.1-2.25-.73-.31-.3-.69-.84-.69-1.69 0-.07.66-7 4.3-7h7.4c.1 0 .2 0 .32-.01.78-.03 1.96-.08 2.79.72.31.3.69.84.69 1.69 0 .07-.66 7-4.3 7h-7.4c-.1 0-.2 0-.32.01-.16.01-.34.01-.54.01zm1.46-6.42c-.5.38-1.09 2.22-1.31 3.42.1 0 .2-.01.28-.01.16-.01.31-.01.44-.01h7.3c.5-.38 1.09-2.22 1.31-3.42-.1 0-.2.01-.28.01-.16.01-.31.01-.44.01h-7.3zM186.05 34.5c0-7.35 5.85-9.45 5.85-11.45 0-2.2-4.1-3.7-4.1-9.7 0-7.1 5.2-10.8 11.75-10.8 7.35 0 10.95 5.05 10.95 9.6 0 5.45-4.7 7.4-4.7 9.1 0 2.05 6.75 3.95 6.75 11.15 0 8.2-5.8 12.2-13.5 12.2-6.6 0-13-3.25-13-10.1zm18.4-2.2c0-3.1-3-6-5.25-6-2.9 0-5.05 3.25-5.05 5.95 0 2.4 1.8 4 4.85 4 2.95 0 5.45-1.5 5.45-3.95zm-9.9-19.5c0 3.4 3.25 5.95 4.65 5.95 1.7 0 4.55-2.8 4.55-5.85 0-2.6-2.2-4.45-4.75-4.45-2.35 0-4.45 1.95-4.45 4.35z"/><path class="st0" d="M199.05 46.1c-6.98 0-14.5-3.63-14.5-11.6 0-5.45 2.94-8.42 4.69-10.2.43-.44 1.02-1.03 1.15-1.31-.06-.32-.52-.91-.98-1.47-1.24-1.55-3.12-3.9-3.12-8.17 0-7.36 5.33-12.3 13.25-12.3 8.09 0 12.45 5.72 12.45 11.1 0 4.09-2.24 6.48-3.73 8.06-.31.33-.72.76-.9 1.03.24.3.84.81 1.29 1.19 2.02 1.72 5.4 4.59 5.4 9.98 0 8.44-5.75 13.69-15 13.69zm.5-42.05c-4.96 0-10.25 2.44-10.25 9.3 0 3.21 1.31 4.85 2.46 6.29.84 1.05 1.64 2.05 1.64 3.41 0 1.3-.94 2.25-2.02 3.35-1.71 1.73-3.83 3.88-3.83 8.1 0 5.94 5.78 8.6 11.5 8.6 10.83 0 12-7.48 12-10.7 0-4-2.41-6.05-4.34-7.69-1.29-1.1-2.41-2.05-2.41-3.46 0-1.2.83-2.08 1.79-3.1 1.3-1.38 2.91-3.1 2.91-6 0-4.03-3.25-8.1-9.45-8.1zm7.73 17.34zM199 37.75c-3.8 0-6.35-2.21-6.35-5.5 0-3.52 2.8-7.45 6.55-7.45 2.98 0 6.75 3.53 6.75 7.5 0 3.16-2.92 5.45-6.95 5.45zm.2-9.95c-1.91 0-3.55 2.45-3.55 4.45 0 2.26 2.34 2.5 3.35 2.5 1.96 0 3.95-.84 3.95-2.45 0-2.27-2.37-4.5-3.75-4.5zm0-7.55c-2.37 0-6.15-3.41-6.15-7.45 0-3.17 2.73-5.85 5.95-5.85 3.5 0 6.25 2.61 6.25 5.95 0 3.79-3.41 7.35-6.05 7.35zm-.2-10.3c-1.57 0-2.95 1.33-2.95 2.85 0 2.57 2.51 4.38 3.17 4.45.71 0 3.03-2.01 3.03-4.35 0-1.85-1.65-2.95-3.25-2.95zM239.3 3.3c1.3 0 2.95-.35 2.95 1.45 0 8.2-7.55 12.85-7.55 13.95 0 1.3 8.3 1.95 8.3 11.65 0 7.8-5 14.25-13.1 14.25-7.25 0-11.3-5-11.3-5.65 0-.4 4.7-6.8 5.2-6.8 1.05 0 2.5 3.55 6.7 3.55 2.85 0 5.2-3 5.2-5.75 0-4.6-4.3-6.6-9.9-6.6-.65 0-1.75-.25-1.75-1.05 0-1.95 9.5-10.25 9.5-11.75 0-.9-1.5-.85-2.4-.85-3.95 0-8.1 1.8-9.05 1.8-.75 0-1.8-6-1.8-7.1 0-1.35 1.55-1.1 2.5-1.1h16.5z"/><path class="st0" d="M229.9 46.1c-7.77 0-12.8-5.31-12.8-7.15 0-.47 0-.83 2.71-4.45 2.89-3.85 3.28-3.85 3.99-3.85.97 0 1.63.66 2.33 1.36.98.98 2.19 2.19 4.37 2.19 1.99 0 3.7-2.34 3.7-4.25 0-4.44-5.26-5.1-8.4-5.1-1.88 0-3.25-1.07-3.25-2.55 0-1.49 1.63-3.35 5.63-7.57 1.07-1.13 2.43-2.56 3.24-3.53h-.26c-2.43 0-5.04.77-6.77 1.28-1.18.35-1.77.52-2.28.52-2.85 0-3.3-8.51-3.3-8.6 0-.93.4-1.52.73-1.84.86-.83 2.1-.79 2.92-.77.12 0 .24.01.35.01h16.5c.16 0 .33-.01.5-.01.93-.03 2.21-.08 3.12.8.55.53.83 1.26.83 2.17 0 6.62-4.32 11-6.65 13.36l-.32.32.06.03c2.48 1.26 7.65 3.88 7.65 11.9 0 9.11-6.14 15.73-14.6 15.73zm-9.58-7.16c.99 1.21 4.23 4.16 9.58 4.16 6.83 0 11.6-5.24 11.6-12.75 0-6.18-3.76-8.08-6.01-9.22-1.18-.6-2.29-1.16-2.29-2.43 0-.91.63-1.55 1.77-2.7 2.02-2.04 5.77-5.84 5.78-11.21-.24-.02-.6-.01-.84 0-.21.01-.41.01-.61.01h-16.5c-.14 0-.29 0-.44-.01-.14 0-.35-.01-.53-.01.11 1.16.61 3.74 1.01 5.03.23-.06.47-.14.7-.2 1.89-.56 4.75-1.41 7.62-1.41h.13c.98 0 2.3-.01 3.14.83.4.4.62.94.62 1.52 0 1.2-1.15 2.51-4.7 6.25-1.41 1.49-3.61 3.81-4.48 5.05 7.09.02 11.32 3.05 11.32 8.1 0 3.42-2.87 7.25-6.7 7.25-3.42 0-5.34-1.92-6.49-3.07l-.05-.05c-1.03 1.22-2.85 3.68-3.63 4.86zm-.3-.42zm5.51-16.05zm6.57-12.23zM270.8 3.3c1.3 0 2.95-.35 2.95 1.45 0 8.2-7.55 12.85-7.55 13.95 0 1.3 8.3 1.95 8.3 11.65 0 7.8-5 14.25-13.1 14.25-7.25 0-11.3-5-11.3-5.65 0-.4 4.7-6.8 5.2-6.8 1.05 0 2.5 3.55 6.7 3.55 2.85 0 5.2-3 5.2-5.75 0-4.6-4.3-6.6-9.9-6.6-.65 0-1.75-.25-1.75-1.05 0-1.95 9.5-10.25 9.5-11.75 0-.9-1.5-.85-2.4-.85-3.95 0-8.1 1.8-9.05 1.8-.75 0-1.8-6-1.8-7.1 0-1.35 1.55-1.1 2.5-1.1h16.5z"/><path class="st0" d="M261.4 46.1c-7.77 0-12.8-5.31-12.8-7.15 0-.47 0-.83 2.71-4.45 2.89-3.85 3.28-3.85 3.99-3.85.97 0 1.63.66 2.33 1.36.98.98 2.19 2.19 4.37 2.19 1.99 0 3.7-2.34 3.7-4.25 0-4.44-5.26-5.1-8.4-5.1-1.88 0-3.25-1.07-3.25-2.55 0-1.49 1.63-3.35 5.63-7.57 1.07-1.13 2.43-2.56 3.24-3.53h-.26c-2.43 0-5.04.77-6.77 1.28-1.19.35-1.79.52-2.29.52-2.85 0-3.3-8.51-3.3-8.6 0-.93.4-1.52.73-1.84.86-.83 2.1-.79 2.92-.77.12 0 .24.01.35.01h16.5c.16 0 .33-.01.5-.01.93-.03 2.21-.08 3.12.8.55.53.83 1.26.83 2.17 0 6.62-4.32 11-6.65 13.36-.1.1-.21.21-.31.32l.06.03c2.48 1.26 7.65 3.88 7.65 11.9 0 9.11-6.14 15.73-14.6 15.73zm-9.58-7.16c.99 1.21 4.23 4.16 9.58 4.16 6.83 0 11.6-5.24 11.6-12.75 0-6.18-3.76-8.08-6.01-9.22-1.18-.6-2.29-1.16-2.29-2.43 0-.91.63-1.55 1.77-2.7 2.02-2.04 5.77-5.84 5.78-11.21-.24-.02-.6-.01-.84 0-.21 0-.41.01-.61.01h-16.5c-.14 0-.29 0-.44-.01-.14 0-.35-.01-.53-.01.11 1.16.61 3.74 1.01 5.03.23-.06.47-.14.7-.2 1.89-.56 4.75-1.41 7.62-1.41h.13c.98 0 2.3-.01 3.14.83.4.4.62.94.62 1.52 0 1.2-1.15 2.51-4.7 6.25-1.41 1.49-3.61 3.81-4.48 5.05 7.09.02 11.32 3.05 11.32 8.1 0 3.42-2.87 7.25-6.7 7.25-3.42 0-5.34-1.92-6.49-3.07l-.05-.05c-1.03 1.22-2.86 3.68-3.63 4.86zm5.21-16.47zm6.57-12.23z"/><g><path class="st0" d="M297.55 25.45c0-11.8 6.55-23.95 18.5-23.95 4.35 0 11.05 1.85 11.05 7.25 0 2.9-2 4.55-5.15 4.55-2.05 0 .7-4.7-5.65-4.7-7.9 0-10.65 8.95-10.65 15.9 0 5.45 1.55 11.2 8.1 11.2 3.1 0 6.45-1.3 6.45-4.8 0-4.05-3.95-4.4-3.95-5.7 0-.65 8.6-3.75 9.2-3.75 1 0 2.15 12.2 2.15 13.7 0 6.55-6.5 9.45-12.7 9.45-11.6 0-17.35-8-17.35-19.15z"/><path class="st0" d="M314.9 46.1c-11.63 0-18.85-7.91-18.85-20.65 0-12.34 7.01-25.45 20-25.45 5.04 0 12.55 2.33 12.55 8.75 0 3.67-2.61 6.05-6.65 6.05-1.99 0-2.33-1.85-2.47-2.63-.23-1.24-.38-2.07-3.18-2.07-7.22 0-9.15 9.05-9.15 14.4 0 9.7 4.97 9.7 6.6 9.7.83 0 4.95-.16 4.95-3.3 0-1.79-1.02-2.47-2.11-3.2-.82-.55-1.84-1.23-1.84-2.5 0-1.15.66-1.72 5.34-3.52 1.05-.41 4.56-1.73 5.36-1.73 1.6 0 2.15 1.42 2.94 7.6.39 3.1.71 6.69.71 7.6 0 7.53-7.36 10.95-14.2 10.95zM316.05 3c-11.04 0-17 11.57-17 22.45 0 11.22 5.78 17.65 15.85 17.65 4.16 0 11.2-1.67 11.2-7.95 0-1.52-.8-9.21-1.46-11.93-1.54.5-4.29 1.53-5.97 2.27 1.24.86 3.02 2.38 3.02 5.41 0 3.77-3.2 6.3-7.95 6.3-3.59 0-9.6-1.65-9.6-12.7 0-8.66 3.76-17.4 12.15-17.4 5.3 0 5.86 3.06 6.13 4.53.01.05.02.1.03.16 1.54-.11 3.14-.76 3.14-3.03.01-4.73-6.89-5.76-9.54-5.76z"/></g><g><path class="st0" d="M347.05 44.6c-10.1 0-14.05-7.25-14.05-15.9 0-12.85 7.2-27.2 16.55-27.2s16.55 14.35 16.55 27.2c0 8.65-3.95 15.9-14.05 15.9h-5zm10.95-17c0-11.05-5.1-18-8.45-18-3.35 0-8.45 6.95-8.45 18 0 5.85 3.15 8.1 8.45 8.1 5.3 0 8.45-2.25 8.45-8.1z"/><path class="st0" d="M352.05 46.1h-5c-9.74 0-15.55-6.5-15.55-17.4 0-13.55 7.72-28.7 18.05-28.7 10.33 0 18.05 15.15 18.05 28.7 0 10.9-5.81 17.4-15.55 17.4zM349.55 3c-6.96 0-15.05 11.23-15.05 25.7 0 5.38 1.63 14.4 12.55 14.4h5c10.92 0 12.55-9.02 12.55-14.4 0-14.47-8.09-25.7-15.05-25.7zm0 34.2c-8.22 0-9.95-5.22-9.95-9.6 0-11.16 5.25-19.5 9.95-19.5s9.95 8.34 9.95 19.5c0 4.38-1.73 9.6-9.95 9.6zm0-26.1c-2.02 0-6.95 5.78-6.95 16.5 0 4.63 2.08 6.6 6.95 6.6s6.95-1.97 6.95-6.6c0-10.72-4.94-16.5-6.95-16.5z"/></g><g><path class="st0" d="M383.15 43.85c-.95 0-3.15 2-3.15-12.5 0-11.15 2.2-18.25 2.2-20.1 0-1.5.25-2.4-1-2.4-3.55 0-9.8 5.75-10.65 5.75-.45 0-.7.2-.7-1.2 0-1.55 1.35-7.75 2.1-9.15.5-.95 7.25-2.75 14-2.75 8.05 0 15.2 2.15 15.2 4.5 0 2.2-2.45 6.95-3 6.95-.85 0-2.9-4.15-6.5-4.15-3.05 0-3.55 9.55-3.55 14.15 0 12.85 2.75 19.15 2.75 20.05 0 1.1-1.8.85-2.45.85h-5.25z"/><path class="st0" d="M382.39 45.45c-.47 0-1.07-.12-1.64-.59-1.17-.97-2.25-3.28-2.25-13.5 0-8.06 1.11-13.96 1.78-17.48.23-1.19.42-2.22.42-2.62 0-.24.01-.47.01-.69v-.16c-2.04.39-5.21 2.67-6.99 3.95-1.75 1.26-2.41 1.74-3.17 1.74-.32.02-.98.05-1.54-.48-.61-.58-.66-1.41-.66-2.22 0-1.67 1.35-8.12 2.28-9.86.74-1.4 7.23-3.54 15.32-3.54 6.46 0 16.7 1.63 16.7 6 0 1.79-2.29 8.45-4.5 8.45-.94 0-1.56-.67-2.34-1.53-1.01-1.11-2.4-2.62-4.16-2.62-.81.36-2.05 4.64-2.05 12.65 0 9.95 1.67 15.84 2.38 18.36.25.89.37 1.3.37 1.69 0 .62-.24 1.2-.67 1.61-.87.84-2.22.78-3.02.75-.1 0-.19-.01-.26-.01l-5.29.02c-.17.03-.42.08-.72.08zm-1.19-38.1c.78 0 1.4.23 1.85.69.72.74.69 1.69.67 2.6 0 .19-.01.39-.01.6 0 .68-.19 1.67-.47 3.17-.65 3.42-1.73 9.14-1.73 16.93 0 8.39.76 10.53 1.08 11.06.21-.04.4-.06.57-.06h5.25c.11 0 .24 0 .39.01.09 0 .23.01.38.01-.02-.08-.05-.17-.07-.25-.75-2.63-2.5-8.81-2.5-19.18 0-10.38 1.7-15.65 5.05-15.65 3 0 5.04 2.14 6.28 3.49.73-1.35 1.72-3.66 1.72-4.79-.38-.83-5.52-3-13.7-3-6 0-11.58 1.43-12.76 2.14-.53 1.24-1.41 5.08-1.72 7.15.17-.12.34-.25.51-.36 3.33-2.39 6.56-4.56 9.21-4.56zm-7.93-2.4s0 .01 0 0c0 .01 0 0 0 0z"/></g><g><path class="st0" d="M404.9 24.2c0-10.85 6.1-22.7 18.25-22.7 4.35 0 11.05 1.85 11.05 7.25 0 2.9-2 4.55-5.15 4.55-2.05 0 .7-4.7-5.65-4.7-7.3 0-10.4 7.45-10.4 13.7 0 9.55 6.5 13.4 10.85 13.4 8.15 0 8.85-7.3 9.3-7.3.7 0 1.1 4 1.1 4.5 0 7.4-5.7 11.7-12.7 11.7-11.35 0-16.65-10.3-16.65-20.4z"/><path class="st0" d="M421.55 46.1c-12.47 0-18.15-11.35-18.15-21.9 0-5.98 1.77-11.92 4.84-16.28 3.65-5.18 8.8-7.92 14.91-7.92 5.04 0 12.55 2.33 12.55 8.75 0 3.67-2.61 6.05-6.65 6.05-1.99 0-2.33-1.85-2.47-2.63-.23-1.24-.38-2.07-3.18-2.07-7.04 0-8.9 7.98-8.9 12.2 0 8.67 5.74 11.9 9.35 11.9 5.54 0 6.9-3.79 7.55-5.61.24-.67.6-1.69 1.75-1.69 2.53 0 2.6 5.39 2.6 6 0 7.77-5.84 13.2-14.2 13.2zm1.6-43.1c-8.32 0-16.75 7.28-16.75 21.2 0 13.06 7.61 18.9 15.15 18.9 5.58 0 11.2-3.15 11.2-10.2 0-.05 0-.11-.01-.18-1.42 2.17-4.02 4.48-8.89 4.48-4.78 0-12.35-4.04-12.35-14.9 0-7.55 4.09-15.2 11.9-15.2 5.3 0 5.86 3.06 6.13 4.53.01.05.02.1.03.16 1.54-.11 3.14-.76 3.14-3.03 0-4.73-6.9-5.76-9.55-5.76z"/></g><g><path class="st0" d="M457.6 2.25c9.3 0 11.65 5.1 11.65 9.35 0 8-7.5 10.45-7.5 11.85 0 1.4 9 7.95 9 19.75 0 .55-.2.65-1.25.65h-5.65c-.9 0-2.45.15-2.45-.65 0-5.65-4-15.8-6.9-15.8-1.5 0-5.15 2.05-5.15 4.85 0 3.8 1.85 10.65 1.85 11 0 .85-1.25.6-1.75.6h-5.8c-1.25 0-2.75.95-2.75-17.8 0-24.7 2.6-23.8 3.45-23.8h13.25zm3.55 10.2c0-3.15-2.95-4.3-5.65-4.3-4.55 0-6.55 1.65-6.5 10.3 0 1.05.05 3.05 1.55 3.05 1.7 0 10.6-4.45 10.6-9.05z"/><path class="st0" d="M450.21 45.39c-.21 0-.4-.01-.56-.02-.08 0-.15-.01-.2-.01h-5.92c-.41.01-1.27.04-2.04-.7-1.1-1.07-2.09-3.29-2.09-18.61 0-19.25 1.56-23.24 2.93-24.56.81-.78 1.67-.76 1.98-.74h13.29c3.08 0 13.15.78 13.15 10.85 0 6.38-4.24 9.65-6.51 11.41-.23.18-.5.38-.71.56.24.3.56.68.83 1 2.56 3.02 7.89 9.3 7.89 18.63 0 2.15-2.07 2.15-2.75 2.15h-6c-.98.02-2.21.04-3.01-.73-.38-.38-.59-.88-.59-1.42 0-6.14-4.11-14.01-5.43-14.3-.84 0-3.62 1.55-3.62 3.35 0 2.74 1.09 7.46 1.56 9.48.25 1.07.29 1.27.29 1.52 0 .59-.23 1.13-.64 1.51-.56.53-1.27.63-1.85.63zm12.66-3.03h.57l.41-.01h5.38c-.31-7.76-4.74-12.99-7.16-15.84-1.21-1.43-1.83-2.15-1.83-3.06 0-1.15.9-1.85 2.15-2.81 2.13-1.64 5.35-4.13 5.35-9.04 0-3.58-1.76-7.85-10.15-7.85h-13.28c-.47.65-1.93 4.13-1.93 22.3 0 12.38.7 15.52 1.09 16.3H449.45c-.54-2.32-1.62-7.04-1.62-10.1 0-3.67 4.37-6.35 6.65-6.35 4.23 0 8.03 10.65 8.39 16.46zM450.54 23c-1.39 0-3.05-.79-3.05-4.55-.03-5.27.69-8.26 2.41-9.99 1.6-1.61 3.83-1.82 5.59-1.82 4.28 0 7.15 2.33 7.15 5.8.01 5.69-9.8 10.56-12.1 10.56zm4.96-13.35c-1.78 0-2.81.28-3.46.93-1.07 1.08-1.56 3.58-1.54 7.86 0 .94.09 1.36.16 1.54 1.76-.3 8.99-4.29 8.99-7.53 0-2.6-3.18-2.8-4.15-2.8z"/></g><g><path class="st0" d="M498.09 43.85c-.45 0-1.9.15-1.9-.6 0-1.4 3.85-6.4 3.85-12.1 0-2.25-2.15-3.1-4.4-3.1-4.55 0-11.8.8-11.8 6.5 0 3.95 3.25 8.2 3.25 8.95 0 .3-.3.35-.95.35h-7.15c-2.55 0-3.25-4.5-3.25-11 0-21.4 14.85-31.35 17.05-31.35 1.65 0 14.55 7.15 14.55 30.35 0 13.35-2.15 12-3.65 12h-5.6zm-13.15-22.2c0 .6.35.95.95.95.9 0 5.75-1.3 10.15-1.3 1.75 0 2.55-.25 2.55-1.65 0-3.1-3.7-9.6-5.6-9.6-2.7 0-8.05 7.95-8.05 11.6z"/><path class="st0" d="M504.48 45.39c-.19 0-.37-.01-.51-.02-.09-.01-.19-.01-.27-.01h-5.76c-.7.02-1.87.06-2.65-.69-.38-.37-.6-.87-.6-1.41 0-.81.43-1.69 1.14-3.13 1.08-2.19 2.71-5.5 2.71-8.97 0-1.44-2.03-1.6-2.9-1.6-4.7 0-10.3.87-10.3 5 0 2.37 1.47 5.08 2.35 6.69.6 1.1.9 1.65.9 2.26 0 .69-.32 1.85-2.45 1.85h-7.15c-4.17 0-4.75-6.01-4.75-12.5 0-21.9 15.01-32.85 18.55-32.85 2.83 0 16.05 8.3 16.05 31.85 0 9.38-1.06 11.66-2.21 12.73-.73.68-1.54.8-2.15.8zm-6.39-3.04h5.6c.16 0 .32.01.49.02.14.01.36.03.42.01.1-.08 1.24-1.16 1.24-10.53 0-21.26-11.16-28.38-13.09-28.84-2.35.48-15.51 10.21-15.51 29.85 0 9.23 1.57 9.5 1.75 9.5h5.89c-1.02-1.89-2.54-4.84-2.54-7.8 0-2.99 1.73-8 13.3-8 3.58 0 5.9 1.81 5.9 4.6 0 4.16-1.81 7.85-3.02 10.29-.13.28-.29.61-.43.9zm-12.2-18.25c-1.42 0-2.45-1.03-2.45-2.45 0-4 5.55-13.1 9.55-13.1 3.31 0 7.1 7.88 7.1 11.1 0 3.15-2.94 3.15-4.05 3.15-2.89 0-6.1.61-8.01.97-1.19.23-1.73.33-2.14.33zm-.95-2.45h1.5-1.5zm7.98-10.09c-1.52.28-5.88 6.07-6.42 9.45.29-.05.64-.12.97-.18 2.02-.38 5.4-1.03 8.57-1.03.58 0 .89-.03 1.05-.07v-.08c.01-2.49-2.93-7.49-4.17-8.09z"/></g><g><path class="st0" d="M516.74 43.85c-1.25 0-2.75.95-2.75-17.8 0-24.7 2.6-23.8 3.45-23.8h12.95c8.85 0 10.2 4.1 10.2 7.3 0 5.5-5.7 8.7-5.7 10.25 0 1.75 8.05 5.8 8.05 14.4 0 4.9-2.95 9.65-11.15 9.65h-15.05zm12.2-27.15c1.45-1.05 3.55-3.5 3.55-5.55 0-2.4-2.1-3-4-3-4.95 0-7.2 2.15-7.2 9.95 0 1-.1 2.3 1.3 2.3.6 0 1.9-.55 2.7-1.1l3.65-2.6zm-5.2 9.5c-1.35.75-2.15 1.05-2.15 2.7 0 7.6 1.9 8.55 6 8.55 3.6 0 7.25-1.4 7.25-5.3 0-3.55-4.4-8.55-5.75-8.55-.65 0-1.55.55-2.1.85l-3.25 1.75z"/><path class="st0" d="M516.4 45.36c-.45 0-1.17-.08-1.81-.7-1.1-1.07-2.09-3.29-2.09-18.61 0-19.25 1.56-23.24 2.93-24.56.81-.78 1.67-.76 1.98-.74h12.99c9.67 0 11.7 4.79 11.7 8.8 0 4.18-2.72 7.1-4.52 9.04-.35.38-.81.87-1.05 1.19.28.34.82.88 1.28 1.32 2.49 2.45 6.65 6.55 6.65 13.1 0 5.39-3.32 11.15-12.65 11.15h-15.17c-.08.01-.16.01-.24.01zm1.02-41.61c-.47.65-1.93 4.13-1.93 22.3 0 12.38.7 15.52 1.09 16.3h15.21c8.71 0 9.65-5.7 9.65-8.15 0-5.3-3.46-8.71-5.75-10.97-1.38-1.36-2.3-2.26-2.3-3.43 0-1.13.83-2.02 1.98-3.26 1.57-1.68 3.72-3.99 3.72-6.99 0-2.7-.99-5.8-8.7-5.8h-12.97zm10.17 35.2c-5.68 0-7.5-2.44-7.5-10.05 0-2.41 1.4-3.18 2.63-3.85l3.75-2.03c.7-.39 1.66-.92 2.62-.92 2.5 0 7.25 6.01 7.25 10.05 0 4.13-3.43 6.8-8.75 6.8zm-3.13-11.43l-.3.16c-1.07.58-1.07.58-1.07 1.22 0 7.05 1.5 7.05 4.5 7.05 1.73 0 5.75-.37 5.75-3.8 0-2.63-3.25-6.44-4.35-7.03-.28.09-.82.38-1.06.52l-3.47 1.88zm-1.87-5.62c-1.01 0-1.62-.41-1.97-.76-.84-.85-.84-2.06-.83-2.86v-.18c0-8.13 2.52-11.45 8.7-11.45 3.44 0 5.5 1.68 5.5 4.5 0 2.73-2.56 5.6-4.17 6.77l-.01.01-3.65 2.6c-.78.54-2.42 1.37-3.57 1.37zm5.9-12.25c-3.34 0-5.7.61-5.7 8.45v.2c0 .15 0 .36.01.54.42-.12 1.12-.42 1.64-.78l3.62-2.58c1.38-1 2.92-3.07 2.92-4.33.01-.45.01-1.5-2.49-1.5z"/></g><g><path class="st0" d="M563.09 8.25c-2.5 0-5.7 1.25-5.7 4.15 0 3.6 4.95 5 7.7 5.95 10.5 3.5 12.65 8.55 12.65 13.3 0 5.8-4.15 12.95-14.7 12.95-7.1 0-14.3-3.8-14.3-11.75 0-4.25 2.55-6.75 3.05-6.75.85 0 0 10.15 10.75 10.15 3.8 0 7.1-1.65 7.1-4.75 0-3.65-4.5-5.15-7.4-6.05-10.95-3.4-12.15-8.35-12.15-12.6 0-4.2 2.85-11.35 13-11.35 7.25 0 12.4 3.85 12.4 5.3 0 1.4-2.6 5.95-4 5.95-1.25 0-3.2-4.5-8.4-4.5z"/><path class="st0" d="M563.04 46.1c-7.61 0-15.8-4.15-15.8-13.25 0-4.55 2.75-8.25 4.55-8.25 1.4 0 1.69 1.35 1.92 2.44.58 2.7 1.65 7.71 8.83 7.71 2.7 0 5.6-1.02 5.6-3.25 0-2.33-3.05-3.59-6.35-4.62-11.64-3.61-13.21-9.12-13.21-14.03 0-4.44 3.03-12.85 14.5-12.85 7.67 0 13.9 4.12 13.9 6.8 0 1.81-2.92 7.45-5.5 7.45-1.03 0-1.76-.73-2.61-1.58-1.23-1.23-2.92-2.92-5.79-2.92-1.62 0-4.2.72-4.2 2.65 0 2.27 3.65 3.5 6.07 4.32l.62.21c9.32 3.11 13.66 7.78 13.66 14.72.02 6.96-5.06 14.45-16.19 14.45zm-11.92-16.99c-.46.9-.87 2.16-.87 3.75 0 7.04 6.64 10.25 12.8 10.25 10.42 0 13.2-7.2 13.2-11.45 0-3.73-1.32-8.44-11.63-11.88l-.62-.22c-3.03-1.03-8.11-2.74-8.11-7.16 0-3.71 3.62-5.65 7.2-5.65 4.11 0 6.49 2.38 7.91 3.8.17.17.37.37.54.53.87-.79 2.25-3.2 2.43-4.16-.63-1.03-4.75-3.92-10.88-3.92-9.08 0-11.5 6.19-11.5 9.85 0 3.74.86 7.99 11.1 11.17 2.75.85 8.46 2.63 8.46 7.48 0 3.68-3.54 6.25-8.6 6.25-8.23 0-10.56-5.37-11.43-8.64z"/></g></svg>
